<svg xmlns="http://www.w3.org/2000/svg" viewBox="0 0 1200 415" width="1200" height="415" role="img" aria-label="Tong Shan — Researcher, Engineer, Creator">
  <style>
  @keyframes drift0 { from { transform: translateX(0); } to { transform: translateX(-360px); } }
  .w0 { animation: drift0 13s linear infinite; }
  @keyframes drift1 { from { transform: translateX(0); } to { transform: translateX(300px); } }
  .w1 { animation: drift1 17s linear infinite; }
  @keyframes drift2 { from { transform: translateX(0); } to { transform: translateX(-220px); } }
  .w2 { animation: drift2 10s linear infinite; }
  @keyframes drift3 { from { transform: translateX(0); } to { transform: translateX(420px); } }
  .w3 { animation: drift3 21s linear infinite; }
    @media (prefers-reduced-motion: reduce) { .w { animation: none; } }
    text { font-family: 'Inter','Helvetica Neue',Helvetica,Arial,sans-serif; }
  </style>
  <defs>
    <linearGradient id="fade" x1="0" y1="0" x2="0" y2="1">
      <stop offset="0%" stop-color="#000000" stop-opacity="0"/>
      <stop offset="75%" stop-color="#000000" stop-opacity="0"/>
      <stop offset="100%" stop-color="#000000" stop-opacity="1"/>
    </linearGradient>
  </defs>

  <rect width="1200" height="415" fill="#000000"/>

  <g>
  <path class="w w0" d="M-720.0,150.00 L-716.0,152.37 L-712.0,154.73 L-708.0,157.07 L-704.0,159.37 L-700.0,161.63 L-696.0,163.83 L-692.0,165.96 L-688.0,168.02 L-684.0,169.98 L-680.0,171.85 L-676.0,173.62 L-672.0,175.27 L-668.0,176.79 L-664.0,178.19 L-660.0,179.44 L-656.0,180.56 L-652.0,181.52 L-648.0,182.34 L-644.0,182.99 L-640.0,183.48 L-636.0,183.81 L-632.0,183.98 L-628.0,183.98 L-624.0,183.81 L-620.0,183.48 L-616.0,182.99 L-612.0,182.34 L-608.0,181.52 L-604.0,180.56 L-600.0,179.44 L-596.0,178.19 L-592.0,176.79 L-588.0,175.27 L-584.0,173.62 L-580.0,171.85 L-576.0,169.98 L-572.0,168.02 L-568.0,165.96 L-564.0,163.83 L-560.0,161.63 L-556.0,159.37 L-552.0,157.07 L-548.0,154.73 L-544.0,152.37 L-540.0,150.00 L-536.0,147.63 L-532.0,145.27 L-528.0,142.93 L-524.0,140.63 L-520.0,138.37 L-516.0,136.17 L-512.0,134.04 L-508.0,131.98 L-504.0,130.02 L-500.0,128.15 L-496.0,126.38 L-492.0,124.73 L-488.0,123.21 L-484.0,121.81 L-480.0,120.56 L-476.0,119.44 L-472.0,118.48 L-468.0,117.66 L-464.0,117.01 L-460.0,116.52 L-456.0,116.19 L-452.0,116.02 L-448.0,116.02 L-444.0,116.19 L-440.0,116.52 L-436.0,117.01 L-432.0,117.66 L-428.0,118.48 L-424.0,119.44 L-420.0,120.56 L-416.0,121.81 L-412.0,123.21 L-408.0,124.73 L-404.0,126.38 L-400.0,128.15 L-396.0,130.02 L-392.0,131.98 L-388.0,134.04 L-384.0,136.17 L-380.0,138.37 L-376.0,140.63 L-372.0,142.93 L-368.0,145.27 L-364.0,147.63 L-360.0,150.00 L-356.0,152.37 L-352.0,154.73 L-348.0,157.07 L-344.0,159.37 L-340.0,161.63 L-336.0,163.83 L-332.0,165.96 L-328.0,168.02 L-324.0,169.98 L-320.0,171.85 L-316.0,173.62 L-312.0,175.27 L-308.0,176.79 L-304.0,178.19 L-300.0,179.44 L-296.0,180.56 L-292.0,181.52 L-288.0,182.34 L-284.0,182.99 L-280.0,183.48 L-276.0,183.81 L-272.0,183.98 L-268.0,183.98 L-264.0,183.81 L-260.0,183.48 L-256.0,182.99 L-252.0,182.34 L-248.0,181.52 L-244.0,180.56 L-240.0,179.44 L-236.0,178.19 L-232.0,176.79 L-228.0,175.27 L-224.0,173.62 L-220.0,171.85 L-216.0,169.98 L-212.0,168.02 L-208.0,165.96 L-204.0,163.83 L-200.0,161.63 L-196.0,159.37 L-192.0,157.07 L-188.0,154.73 L-184.0,152.37 L-180.0,150.00 L-176.0,147.63 L-172.0,145.27 L-168.0,142.93 L-164.0,140.63 L-160.0,138.37 L-156.0,136.17 L-152.0,134.04 L-148.0,131.98 L-144.0,130.02 L-140.0,128.15 L-136.0,126.38 L-132.0,124.73 L-128.0,123.21 L-124.0,121.81 L-120.0,120.56 L-116.0,119.44 L-112.0,118.48 L-108.0,117.66 L-104.0,117.01 L-100.0,116.52 L-96.0,116.19 L-92.0,116.02 L-88.0,116.02 L-84.0,116.19 L-80.0,116.52 L-76.0,117.01 L-72.0,117.66 L-68.0,118.48 L-64.0,119.44 L-60.0,120.56 L-56.0,121.81 L-52.0,123.21 L-48.0,124.73 L-44.0,126.38 L-40.0,128.15 L-36.0,130.02 L-32.0,131.98 L-28.0,134.04 L-24.0,136.17 L-20.0,138.37 L-16.0,140.63 L-12.0,142.93 L-8.0,145.27 L-4.0,147.63 L0.0,150.00 L4.0,152.37 L8.0,154.73 L12.0,157.07 L16.0,159.37 L20.0,161.63 L24.0,163.83 L28.0,165.96 L32.0,168.02 L36.0,169.98 L40.0,171.85 L44.0,173.62 L48.0,175.27 L52.0,176.79 L56.0,178.19 L60.0,179.44 L64.0,180.56 L68.0,181.52 L72.0,182.34 L76.0,182.99 L80.0,183.48 L84.0,183.81 L88.0,183.98 L92.0,183.98 L96.0,183.81 L100.0,183.48 L104.0,182.99 L108.0,182.34 L112.0,181.52 L116.0,180.56 L120.0,179.44 L124.0,178.19 L128.0,176.79 L132.0,175.27 L136.0,173.62 L140.0,171.85 L144.0,169.98 L148.0,168.02 L152.0,165.96 L156.0,163.83 L160.0,161.63 L164.0,159.37 L168.0,157.07 L172.0,154.73 L176.0,152.37 L180.0,150.00 L184.0,147.63 L188.0,145.27 L192.0,142.93 L196.0,140.63 L200.0,138.37 L204.0,136.17 L208.0,134.04 L212.0,131.98 L216.0,130.02 L220.0,128.15 L224.0,126.38 L228.0,124.73 L232.0,123.21 L236.0,121.81 L240.0,120.56 L244.0,119.44 L248.0,118.48 L252.0,117.66 L256.0,117.01 L260.0,116.52 L264.0,116.19 L268.0,116.02 L272.0,116.02 L276.0,116.19 L280.0,116.52 L284.0,117.01 L288.0,117.66 L292.0,118.48 L296.0,119.44 L300.0,120.56 L304.0,121.81 L308.0,123.21 L312.0,124.73 L316.0,126.38 L320.0,128.15 L324.0,130.02 L328.0,131.98 L332.0,134.04 L336.0,136.17 L340.0,138.37 L344.0,140.63 L348.0,142.93 L352.0,145.27 L356.0,147.63 L360.0,150.00 L364.0,152.37 L368.0,154.73 L372.0,157.07 L376.0,159.37 L380.0,161.63 L384.0,163.83 L388.0,165.96 L392.0,168.02 L396.0,169.98 L400.0,171.85 L404.0,173.62 L408.0,175.27 L412.0,176.79 L416.0,178.19 L420.0,179.44 L424.0,180.56 L428.0,181.52 L432.0,182.34 L436.0,182.99 L440.0,183.48 L444.0,183.81 L448.0,183.98 L452.0,183.98 L456.0,183.81 L460.0,183.48 L464.0,182.99 L468.0,182.34 L472.0,181.52 L476.0,180.56 L480.0,179.44 L484.0,178.19 L488.0,176.79 L492.0,175.27 L496.0,173.62 L500.0,171.85 L504.0,169.98 L508.0,168.02 L512.0,165.96 L516.0,163.83 L520.0,161.63 L524.0,159.37 L528.0,157.07 L532.0,154.73 L536.0,152.37 L540.0,150.00 L544.0,147.63 L548.0,145.27 L552.0,142.93 L556.0,140.63 L560.0,138.37 L564.0,136.17 L568.0,134.04 L572.0,131.98 L576.0,130.02 L580.0,128.15 L584.0,126.38 L588.0,124.73 L592.0,123.21 L596.0,121.81 L600.0,120.56 L604.0,119.44 L608.0,118.48 L612.0,117.66 L616.0,117.01 L620.0,116.52 L624.0,116.19 L628.0,116.02 L632.0,116.02 L636.0,116.19 L640.0,116.52 L644.0,117.01 L648.0,117.66 L652.0,118.48 L656.0,119.44 L660.0,120.56 L664.0,121.81 L668.0,123.21 L672.0,124.73 L676.0,126.38 L680.0,128.15 L684.0,130.02 L688.0,131.98 L692.0,134.04 L696.0,136.17 L700.0,138.37 L704.0,140.63 L708.0,142.93 L712.0,145.27 L716.0,147.63 L720.0,150.00 L724.0,152.37 L728.0,154.73 L732.0,157.07 L736.0,159.37 L740.0,161.63 L744.0,163.83 L748.0,165.96 L752.0,168.02 L756.0,169.98 L760.0,171.85 L764.0,173.62 L768.0,175.27 L772.0,176.79 L776.0,178.19 L780.0,179.44 L784.0,180.56 L788.0,181.52 L792.0,182.34 L796.0,182.99 L800.0,183.48 L804.0,183.81 L808.0,183.98 L812.0,183.98 L816.0,183.81 L820.0,183.48 L824.0,182.99 L828.0,182.34 L832.0,181.52 L836.0,180.56 L840.0,179.44 L844.0,178.19 L848.0,176.79 L852.0,175.27 L856.0,173.62 L860.0,171.85 L864.0,169.98 L868.0,168.02 L872.0,165.96 L876.0,163.83 L880.0,161.63 L884.0,159.37 L888.0,157.07 L892.0,154.73 L896.0,152.37 L900.0,150.00 L904.0,147.63 L908.0,145.27 L912.0,142.93 L916.0,140.63 L920.0,138.37 L924.0,136.17 L928.0,134.04 L932.0,131.98 L936.0,130.02 L940.0,128.15 L944.0,126.38 L948.0,124.73 L952.0,123.21 L956.0,121.81 L960.0,120.56 L964.0,119.44 L968.0,118.48 L972.0,117.66 L976.0,117.01 L980.0,116.52 L984.0,116.19 L988.0,116.02 L992.0,116.02 L996.0,116.19 L1000.0,116.52 L1004.0,117.01 L1008.0,117.66 L1012.0,118.48 L1016.0,119.44 L1020.0,120.56 L1024.0,121.81 L1028.0,123.21 L1032.0,124.73 L1036.0,126.38 L1040.0,128.15 L1044.0,130.02 L1048.0,131.98 L1052.0,134.04 L1056.0,136.17 L1060.0,138.37 L1064.0,140.63 L1068.0,142.93 L1072.0,145.27 L1076.0,147.63 L1080.0,150.00 L1084.0,152.37 L1088.0,154.73 L1092.0,157.07 L1096.0,159.37 L1100.0,161.63 L1104.0,163.83 L1108.0,165.96 L1112.0,168.02 L1116.0,169.98 L1120.0,171.85 L1124.0,173.62 L1128.0,175.27 L1132.0,176.79 L1136.0,178.19 L1140.0,179.44 L1144.0,180.56 L1148.0,181.52 L1152.0,182.34 L1156.0,182.99 L1160.0,183.48 L1164.0,183.81 L1168.0,183.98 L1172.0,183.98 L1176.0,183.81 L1180.0,183.48 L1184.0,182.99 L1188.0,182.34 L1192.0,181.52 L1196.0,180.56 L1200.0,179.44 L1204.0,178.19 L1208.0,176.79 L1212.0,175.27 L1216.0,173.62 L1220.0,171.85 L1224.0,169.98 L1228.0,168.02 L1232.0,165.96 L1236.0,163.83 L1240.0,161.63 L1244.0,159.37 L1248.0,157.07 L1252.0,154.73 L1256.0,152.37 L1260.0,150.00 L1264.0,147.63 L1268.0,145.27 L1272.0,142.93 L1276.0,140.63 L1280.0,138.37 L1284.0,136.17 L1288.0,134.04 L1292.0,131.98 L1296.0,130.02 L1300.0,128.15 L1304.0,126.38 L1308.0,124.73 L1312.0,123.21 L1316.0,121.81 L1320.0,120.56 L1324.0,119.44 L1328.0,118.48 L1332.0,117.66 L1336.0,117.01 L1340.0,116.52 L1344.0,116.19 L1348.0,116.02 L1352.0,116.02 L1356.0,116.19 L1360.0,116.52 L1364.0,117.01 L1368.0,117.66 L1372.0,118.48 L1376.0,119.44 L1380.0,120.56 L1384.0,121.81 L1388.0,123.21 L1392.0,124.73 L1396.0,126.38 L1400.0,128.15 L1404.0,130.02 L1408.0,131.98 L1412.0,134.04 L1416.0,136.17 L1420.0,138.37 L1424.0,140.63 L1428.0,142.93 L1432.0,145.27 L1436.0,147.63 L1440.0,150.00 L1444.0,152.37 L1448.0,154.73 L1452.0,157.07 L1456.0,159.37 L1460.0,161.63 L1464.0,163.83 L1468.0,165.96 L1472.0,168.02 L1476.0,169.98 L1480.0,171.85 L1484.0,173.62 L1488.0,175.27 L1492.0,176.79 L1496.0,178.19 L1500.0,179.44 L1504.0,180.56 L1508.0,181.52 L1512.0,182.34 L1516.0,182.99 L1520.0,183.48 L1524.0,183.81 L1528.0,183.98 L1532.0,183.98 L1536.0,183.81 L1540.0,183.48 L1544.0,182.99 L1548.0,182.34 L1552.0,181.52 L1556.0,180.56 L1560.0,179.44 L1564.0,178.19 L1568.0,176.79 L1572.0,175.27 L1576.0,173.62 L1580.0,171.85 L1584.0,169.98 L1588.0,168.02 L1592.0,165.96 L1596.0,163.83 L1600.0,161.63 L1604.0,159.37 L1608.0,157.07 L1612.0,154.73 L1616.0,152.37 L1620.0,150.00 L1624.0,147.63 L1628.0,145.27 L1632.0,142.93 L1636.0,140.63 L1640.0,138.37 L1644.0,136.17 L1648.0,134.04 L1652.0,131.98 L1656.0,130.02 L1660.0,128.15 L1664.0,126.38 L1668.0,124.73 L1672.0,123.21 L1676.0,121.81 L1680.0,120.56 L1684.0,119.44 L1688.0,118.48 L1692.0,117.66 L1696.0,117.01 L1700.0,116.52 L1704.0,116.19 L1708.0,116.02 L1712.0,116.02 L1716.0,116.19 L1720.0,116.52 L1724.0,117.01 L1728.0,117.66 L1732.0,118.48 L1736.0,119.44 L1740.0,120.56 L1744.0,121.81 L1748.0,123.21 L1752.0,124.73 L1756.0,126.38 L1760.0,128.15 L1764.0,130.02 L1768.0,131.98 L1772.0,134.04 L1776.0,136.17 L1780.0,138.37 L1784.0,140.63 L1788.0,142.93 L1792.0,145.27 L1796.0,147.63 L1800.0,150.00 L1804.0,152.37 L1808.0,154.73 L1812.0,157.07 L1816.0,159.37 L1820.0,161.63 L1824.0,163.83 L1828.0,165.96 L1832.0,168.02 L1836.0,169.98 L1840.0,171.85 L1844.0,173.62 L1848.0,175.27 L1852.0,176.79 L1856.0,178.19 L1860.0,179.44 L1864.0,180.56 L1868.0,181.52 L1872.0,182.34 L1876.0,182.99 L1880.0,183.48 L1884.0,183.81 L1888.0,183.98 L1892.0,183.98 L1896.0,183.81 L1900.0,183.48 L1904.0,182.99 L1908.0,182.34 L1912.0,181.52 L1916.0,180.56 L1920.0,179.44" fill="none" stroke="#4EC5D4" stroke-opacity="0.30" stroke-width="2.0" stroke-linecap="round"/>
  <path class="w w1" d="M-600.0,191.00 L-596.0,192.60 L-592.0,193.90 L-588.0,194.90 L-584.0,195.58 L-580.0,195.94 L-576.0,195.98 L-572.0,195.69 L-568.0,195.09 L-564.0,194.17 L-560.0,192.94 L-556.0,191.41 L-552.0,189.58 L-548.0,187.48 L-544.0,185.12 L-540.0,182.51 L-536.0,179.68 L-532.0,176.63 L-528.0,173.40 L-524.0,170.00 L-520.0,166.47 L-516.0,162.81 L-512.0,159.07 L-508.0,155.27 L-504.0,151.42 L-500.0,147.57 L-496.0,143.74 L-492.0,139.95 L-488.0,136.22 L-484.0,132.60 L-480.0,129.10 L-476.0,125.74 L-472.0,122.56 L-468.0,119.56 L-464.0,116.78 L-460.0,114.24 L-456.0,111.94 L-452.0,109.91 L-448.0,108.17 L-444.0,106.71 L-440.0,105.56 L-436.0,104.72 L-432.0,104.20 L-428.0,104.00 L-424.0,104.13 L-420.0,104.57 L-416.0,105.33 L-412.0,106.41 L-408.0,107.79 L-404.0,109.47 L-400.0,111.43 L-396.0,113.67 L-392.0,116.15 L-388.0,118.88 L-384.0,121.82 L-380.0,124.96 L-376.0,128.28 L-372.0,131.75 L-368.0,135.35 L-364.0,139.05 L-360.0,142.82 L-356.0,146.65 L-352.0,150.50 L-348.0,154.35 L-344.0,158.17 L-340.0,161.93 L-336.0,165.60 L-332.0,169.17 L-328.0,172.60 L-324.0,175.87 L-320.0,178.96 L-316.0,181.85 L-312.0,184.52 L-308.0,186.94 L-304.0,189.11 L-300.0,191.00 L-296.0,192.60 L-292.0,193.90 L-288.0,194.90 L-284.0,195.58 L-280.0,195.94 L-276.0,195.98 L-272.0,195.69 L-268.0,195.09 L-264.0,194.17 L-260.0,192.94 L-256.0,191.41 L-252.0,189.58 L-248.0,187.48 L-244.0,185.12 L-240.0,182.51 L-236.0,179.68 L-232.0,176.63 L-228.0,173.40 L-224.0,170.00 L-220.0,166.47 L-216.0,162.81 L-212.0,159.07 L-208.0,155.27 L-204.0,151.42 L-200.0,147.57 L-196.0,143.74 L-192.0,139.95 L-188.0,136.22 L-184.0,132.60 L-180.0,129.10 L-176.0,125.74 L-172.0,122.56 L-168.0,119.56 L-164.0,116.78 L-160.0,114.24 L-156.0,111.94 L-152.0,109.91 L-148.0,108.17 L-144.0,106.71 L-140.0,105.56 L-136.0,104.72 L-132.0,104.20 L-128.0,104.00 L-124.0,104.13 L-120.0,104.57 L-116.0,105.33 L-112.0,106.41 L-108.0,107.79 L-104.0,109.47 L-100.0,111.43 L-96.0,113.67 L-92.0,116.15 L-88.0,118.88 L-84.0,121.82 L-80.0,124.96 L-76.0,128.28 L-72.0,131.75 L-68.0,135.35 L-64.0,139.05 L-60.0,142.82 L-56.0,146.65 L-52.0,150.50 L-48.0,154.35 L-44.0,158.17 L-40.0,161.93 L-36.0,165.60 L-32.0,169.17 L-28.0,172.60 L-24.0,175.87 L-20.0,178.96 L-16.0,181.85 L-12.0,184.52 L-8.0,186.94 L-4.0,189.11 L0.0,191.00 L4.0,192.60 L8.0,193.90 L12.0,194.90 L16.0,195.58 L20.0,195.94 L24.0,195.98 L28.0,195.69 L32.0,195.09 L36.0,194.17 L40.0,192.94 L44.0,191.41 L48.0,189.58 L52.0,187.48 L56.0,185.12 L60.0,182.51 L64.0,179.68 L68.0,176.63 L72.0,173.40 L76.0,170.00 L80.0,166.47 L84.0,162.81 L88.0,159.07 L92.0,155.27 L96.0,151.42 L100.0,147.57 L104.0,143.74 L108.0,139.95 L112.0,136.22 L116.0,132.60 L120.0,129.10 L124.0,125.74 L128.0,122.56 L132.0,119.56 L136.0,116.78 L140.0,114.24 L144.0,111.94 L148.0,109.91 L152.0,108.17 L156.0,106.71 L160.0,105.56 L164.0,104.72 L168.0,104.20 L172.0,104.00 L176.0,104.13 L180.0,104.57 L184.0,105.33 L188.0,106.41 L192.0,107.79 L196.0,109.47 L200.0,111.43 L204.0,113.67 L208.0,116.15 L212.0,118.88 L216.0,121.82 L220.0,124.96 L224.0,128.28 L228.0,131.75 L232.0,135.35 L236.0,139.05 L240.0,142.82 L244.0,146.65 L248.0,150.50 L252.0,154.35 L256.0,158.17 L260.0,161.93 L264.0,165.60 L268.0,169.17 L272.0,172.60 L276.0,175.87 L280.0,178.96 L284.0,181.85 L288.0,184.52 L292.0,186.94 L296.0,189.11 L300.0,191.00 L304.0,192.60 L308.0,193.90 L312.0,194.90 L316.0,195.58 L320.0,195.94 L324.0,195.98 L328.0,195.69 L332.0,195.09 L336.0,194.17 L340.0,192.94 L344.0,191.41 L348.0,189.58 L352.0,187.48 L356.0,185.12 L360.0,182.51 L364.0,179.68 L368.0,176.63 L372.0,173.40 L376.0,170.00 L380.0,166.47 L384.0,162.81 L388.0,159.07 L392.0,155.27 L396.0,151.42 L400.0,147.57 L404.0,143.74 L408.0,139.95 L412.0,136.22 L416.0,132.60 L420.0,129.10 L424.0,125.74 L428.0,122.56 L432.0,119.56 L436.0,116.78 L440.0,114.24 L444.0,111.94 L448.0,109.91 L452.0,108.17 L456.0,106.71 L460.0,105.56 L464.0,104.72 L468.0,104.20 L472.0,104.00 L476.0,104.13 L480.0,104.57 L484.0,105.33 L488.0,106.41 L492.0,107.79 L496.0,109.47 L500.0,111.43 L504.0,113.67 L508.0,116.15 L512.0,118.88 L516.0,121.82 L520.0,124.96 L524.0,128.28 L528.0,131.75 L532.0,135.35 L536.0,139.05 L540.0,142.82 L544.0,146.65 L548.0,150.50 L552.0,154.35 L556.0,158.17 L560.0,161.93 L564.0,165.60 L568.0,169.17 L572.0,172.60 L576.0,175.87 L580.0,178.96 L584.0,181.85 L588.0,184.52 L592.0,186.94 L596.0,189.11 L600.0,191.00 L604.0,192.60 L608.0,193.90 L612.0,194.90 L616.0,195.58 L620.0,195.94 L624.0,195.98 L628.0,195.69 L632.0,195.09 L636.0,194.17 L640.0,192.94 L644.0,191.41 L648.0,189.58 L652.0,187.48 L656.0,185.12 L660.0,182.51 L664.0,179.68 L668.0,176.63 L672.0,173.40 L676.0,170.00 L680.0,166.47 L684.0,162.81 L688.0,159.07 L692.0,155.27 L696.0,151.42 L700.0,147.57 L704.0,143.74 L708.0,139.95 L712.0,136.22 L716.0,132.60 L720.0,129.10 L724.0,125.74 L728.0,122.56 L732.0,119.56 L736.0,116.78 L740.0,114.24 L744.0,111.94 L748.0,109.91 L752.0,108.17 L756.0,106.71 L760.0,105.56 L764.0,104.72 L768.0,104.20 L772.0,104.00 L776.0,104.13 L780.0,104.57 L784.0,105.33 L788.0,106.41 L792.0,107.79 L796.0,109.47 L800.0,111.43 L804.0,113.67 L808.0,116.15 L812.0,118.88 L816.0,121.82 L820.0,124.96 L824.0,128.28 L828.0,131.75 L832.0,135.35 L836.0,139.05 L840.0,142.82 L844.0,146.65 L848.0,150.50 L852.0,154.35 L856.0,158.17 L860.0,161.93 L864.0,165.60 L868.0,169.17 L872.0,172.60 L876.0,175.87 L880.0,178.96 L884.0,181.85 L888.0,184.52 L892.0,186.94 L896.0,189.11 L900.0,191.00 L904.0,192.60 L908.0,193.90 L912.0,194.90 L916.0,195.58 L920.0,195.94 L924.0,195.98 L928.0,195.69 L932.0,195.09 L936.0,194.17 L940.0,192.94 L944.0,191.41 L948.0,189.58 L952.0,187.48 L956.0,185.12 L960.0,182.51 L964.0,179.68 L968.0,176.63 L972.0,173.40 L976.0,170.00 L980.0,166.47 L984.0,162.81 L988.0,159.07 L992.0,155.27 L996.0,151.42 L1000.0,147.57 L1004.0,143.74 L1008.0,139.95 L1012.0,136.22 L1016.0,132.60 L1020.0,129.10 L1024.0,125.74 L1028.0,122.56 L1032.0,119.56 L1036.0,116.78 L1040.0,114.24 L1044.0,111.94 L1048.0,109.91 L1052.0,108.17 L1056.0,106.71 L1060.0,105.56 L1064.0,104.72 L1068.0,104.20 L1072.0,104.00 L1076.0,104.13 L1080.0,104.57 L1084.0,105.33 L1088.0,106.41 L1092.0,107.79 L1096.0,109.47 L1100.0,111.43 L1104.0,113.67 L1108.0,116.15 L1112.0,118.88 L1116.0,121.82 L1120.0,124.96 L1124.0,128.28 L1128.0,131.75 L1132.0,135.35 L1136.0,139.05 L1140.0,142.82 L1144.0,146.65 L1148.0,150.50 L1152.0,154.35 L1156.0,158.17 L1160.0,161.93 L1164.0,165.60 L1168.0,169.17 L1172.0,172.60 L1176.0,175.87 L1180.0,178.96 L1184.0,181.85 L1188.0,184.52 L1192.0,186.94 L1196.0,189.11 L1200.0,191.00 L1204.0,192.60 L1208.0,193.90 L1212.0,194.90 L1216.0,195.58 L1220.0,195.94 L1224.0,195.98 L1228.0,195.69 L1232.0,195.09 L1236.0,194.17 L1240.0,192.94 L1244.0,191.41 L1248.0,189.58 L1252.0,187.48 L1256.0,185.12 L1260.0,182.51 L1264.0,179.68 L1268.0,176.63 L1272.0,173.40 L1276.0,170.00 L1280.0,166.47 L1284.0,162.81 L1288.0,159.07 L1292.0,155.27 L1296.0,151.42 L1300.0,147.57 L1304.0,143.74 L1308.0,139.95 L1312.0,136.22 L1316.0,132.60 L1320.0,129.10 L1324.0,125.74 L1328.0,122.56 L1332.0,119.56 L1336.0,116.78 L1340.0,114.24 L1344.0,111.94 L1348.0,109.91 L1352.0,108.17 L1356.0,106.71 L1360.0,105.56 L1364.0,104.72 L1368.0,104.20 L1372.0,104.00 L1376.0,104.13 L1380.0,104.57 L1384.0,105.33 L1388.0,106.41 L1392.0,107.79 L1396.0,109.47 L1400.0,111.43 L1404.0,113.67 L1408.0,116.15 L1412.0,118.88 L1416.0,121.82 L1420.0,124.96 L1424.0,128.28 L1428.0,131.75 L1432.0,135.35 L1436.0,139.05 L1440.0,142.82 L1444.0,146.65 L1448.0,150.50 L1452.0,154.35 L1456.0,158.17 L1460.0,161.93 L1464.0,165.60 L1468.0,169.17 L1472.0,172.60 L1476.0,175.87 L1480.0,178.96 L1484.0,181.85 L1488.0,184.52 L1492.0,186.94 L1496.0,189.11 L1500.0,191.00 L1504.0,192.60 L1508.0,193.90 L1512.0,194.90 L1516.0,195.58 L1520.0,195.94 L1524.0,195.98 L1528.0,195.69 L1532.0,195.09 L1536.0,194.17 L1540.0,192.94 L1544.0,191.41 L1548.0,189.58 L1552.0,187.48 L1556.0,185.12 L1560.0,182.51 L1564.0,179.68 L1568.0,176.63 L1572.0,173.40 L1576.0,170.00 L1580.0,166.47 L1584.0,162.81 L1588.0,159.07 L1592.0,155.27 L1596.0,151.42 L1600.0,147.57 L1604.0,143.74 L1608.0,139.95 L1612.0,136.22 L1616.0,132.60 L1620.0,129.10 L1624.0,125.74 L1628.0,122.56 L1632.0,119.56 L1636.0,116.78 L1640.0,114.24 L1644.0,111.94 L1648.0,109.91 L1652.0,108.17 L1656.0,106.71 L1660.0,105.56 L1664.0,104.72 L1668.0,104.20 L1672.0,104.00 L1676.0,104.13 L1680.0,104.57 L1684.0,105.33 L1688.0,106.41 L1692.0,107.79 L1696.0,109.47 L1700.0,111.43 L1704.0,113.67 L1708.0,116.15 L1712.0,118.88 L1716.0,121.82 L1720.0,124.96 L1724.0,128.28 L1728.0,131.75 L1732.0,135.35 L1736.0,139.05 L1740.0,142.82 L1744.0,146.65 L1748.0,150.50 L1752.0,154.35 L1756.0,158.17 L1760.0,161.93 L1764.0,165.60 L1768.0,169.17 L1772.0,172.60 L1776.0,175.87 L1780.0,178.96 L1784.0,181.85 L1788.0,184.52 L1792.0,186.94 L1796.0,189.11 L1800.0,191.00" fill="none" stroke="#4EC5D4" stroke-opacity="0.40" stroke-width="2.5" stroke-linecap="round"/>
  <path class="w w2" d="M-440.0,171.02 L-436.0,169.14 L-432.0,167.01 L-428.0,164.66 L-424.0,162.11 L-420.0,159.41 L-416.0,156.59 L-412.0,153.68 L-408.0,150.72 L-404.0,147.75 L-400.0,144.81 L-396.0,141.94 L-392.0,139.18 L-388.0,136.55 L-384.0,134.10 L-380.0,131.86 L-376.0,129.86 L-372.0,128.11 L-368.0,126.66 L-364.0,125.50 L-360.0,124.67 L-356.0,124.17 L-352.0,124.00 L-348.0,124.17 L-344.0,124.68 L-340.0,125.52 L-336.0,126.68 L-332.0,128.14 L-328.0,129.89 L-324.0,131.90 L-320.0,134.14 L-316.0,136.59 L-312.0,139.22 L-308.0,141.99 L-304.0,144.86 L-300.0,147.80 L-296.0,150.77 L-292.0,153.72 L-288.0,156.63 L-284.0,159.45 L-280.0,162.15 L-276.0,164.69 L-272.0,167.04 L-268.0,169.17 L-264.0,171.05 L-260.0,172.65 L-256.0,173.96 L-252.0,174.95 L-248.0,175.62 L-244.0,175.96 L-240.0,175.96 L-236.0,175.62 L-232.0,174.94 L-228.0,173.94 L-224.0,172.63 L-220.0,171.02 L-216.0,169.14 L-212.0,167.01 L-208.0,164.66 L-204.0,162.11 L-200.0,159.41 L-196.0,156.59 L-192.0,153.68 L-188.0,150.72 L-184.0,147.75 L-180.0,144.81 L-176.0,141.94 L-172.0,139.18 L-168.0,136.55 L-164.0,134.10 L-160.0,131.86 L-156.0,129.86 L-152.0,128.11 L-148.0,126.66 L-144.0,125.50 L-140.0,124.67 L-136.0,124.17 L-132.0,124.00 L-128.0,124.17 L-124.0,124.68 L-120.0,125.52 L-116.0,126.68 L-112.0,128.14 L-108.0,129.89 L-104.0,131.90 L-100.0,134.14 L-96.0,136.59 L-92.0,139.22 L-88.0,141.99 L-84.0,144.86 L-80.0,147.80 L-76.0,150.77 L-72.0,153.72 L-68.0,156.63 L-64.0,159.45 L-60.0,162.15 L-56.0,164.69 L-52.0,167.04 L-48.0,169.17 L-44.0,171.05 L-40.0,172.65 L-36.0,173.96 L-32.0,174.95 L-28.0,175.62 L-24.0,175.96 L-20.0,175.96 L-16.0,175.62 L-12.0,174.94 L-8.0,173.94 L-4.0,172.63 L0.0,171.02 L4.0,169.14 L8.0,167.01 L12.0,164.66 L16.0,162.11 L20.0,159.41 L24.0,156.59 L28.0,153.68 L32.0,150.72 L36.0,147.75 L40.0,144.81 L44.0,141.94 L48.0,139.18 L52.0,136.55 L56.0,134.10 L60.0,131.86 L64.0,129.86 L68.0,128.11 L72.0,126.66 L76.0,125.50 L80.0,124.67 L84.0,124.17 L88.0,124.00 L92.0,124.17 L96.0,124.68 L100.0,125.52 L104.0,126.68 L108.0,128.14 L112.0,129.89 L116.0,131.90 L120.0,134.14 L124.0,136.59 L128.0,139.22 L132.0,141.99 L136.0,144.86 L140.0,147.80 L144.0,150.77 L148.0,153.72 L152.0,156.63 L156.0,159.45 L160.0,162.15 L164.0,164.69 L168.0,167.04 L172.0,169.17 L176.0,171.05 L180.0,172.65 L184.0,173.96 L188.0,174.95 L192.0,175.62 L196.0,175.96 L200.0,175.96 L204.0,175.62 L208.0,174.94 L212.0,173.94 L216.0,172.63 L220.0,171.02 L224.0,169.14 L228.0,167.01 L232.0,164.66 L236.0,162.11 L240.0,159.41 L244.0,156.59 L248.0,153.68 L252.0,150.72 L256.0,147.75 L260.0,144.81 L264.0,141.94 L268.0,139.18 L272.0,136.55 L276.0,134.10 L280.0,131.86 L284.0,129.86 L288.0,128.11 L292.0,126.66 L296.0,125.50 L300.0,124.67 L304.0,124.17 L308.0,124.00 L312.0,124.17 L316.0,124.68 L320.0,125.52 L324.0,126.68 L328.0,128.14 L332.0,129.89 L336.0,131.90 L340.0,134.14 L344.0,136.59 L348.0,139.22 L352.0,141.99 L356.0,144.86 L360.0,147.80 L364.0,150.77 L368.0,153.72 L372.0,156.63 L376.0,159.45 L380.0,162.15 L384.0,164.69 L388.0,167.04 L392.0,169.17 L396.0,171.05 L400.0,172.65 L404.0,173.96 L408.0,174.95 L412.0,175.62 L416.0,175.96 L420.0,175.96 L424.0,175.62 L428.0,174.94 L432.0,173.94 L436.0,172.63 L440.0,171.02 L444.0,169.14 L448.0,167.01 L452.0,164.66 L456.0,162.11 L460.0,159.41 L464.0,156.59 L468.0,153.68 L472.0,150.72 L476.0,147.75 L480.0,144.81 L484.0,141.94 L488.0,139.18 L492.0,136.55 L496.0,134.10 L500.0,131.86 L504.0,129.86 L508.0,128.11 L512.0,126.66 L516.0,125.50 L520.0,124.67 L524.0,124.17 L528.0,124.00 L532.0,124.17 L536.0,124.68 L540.0,125.52 L544.0,126.68 L548.0,128.14 L552.0,129.89 L556.0,131.90 L560.0,134.14 L564.0,136.59 L568.0,139.22 L572.0,141.99 L576.0,144.86 L580.0,147.80 L584.0,150.77 L588.0,153.72 L592.0,156.63 L596.0,159.45 L600.0,162.15 L604.0,164.69 L608.0,167.04 L612.0,169.17 L616.0,171.05 L620.0,172.65 L624.0,173.96 L628.0,174.95 L632.0,175.62 L636.0,175.96 L640.0,175.96 L644.0,175.62 L648.0,174.94 L652.0,173.94 L656.0,172.63 L660.0,171.02 L664.0,169.14 L668.0,167.01 L672.0,164.66 L676.0,162.11 L680.0,159.41 L684.0,156.59 L688.0,153.68 L692.0,150.72 L696.0,147.75 L700.0,144.81 L704.0,141.94 L708.0,139.18 L712.0,136.55 L716.0,134.10 L720.0,131.86 L724.0,129.86 L728.0,128.11 L732.0,126.66 L736.0,125.50 L740.0,124.67 L744.0,124.17 L748.0,124.00 L752.0,124.17 L756.0,124.68 L760.0,125.52 L764.0,126.68 L768.0,128.14 L772.0,129.89 L776.0,131.90 L780.0,134.14 L784.0,136.59 L788.0,139.22 L792.0,141.99 L796.0,144.86 L800.0,147.80 L804.0,150.77 L808.0,153.72 L812.0,156.63 L816.0,159.45 L820.0,162.15 L824.0,164.69 L828.0,167.04 L832.0,169.17 L836.0,171.05 L840.0,172.65 L844.0,173.96 L848.0,174.95 L852.0,175.62 L856.0,175.96 L860.0,175.96 L864.0,175.62 L868.0,174.94 L872.0,173.94 L876.0,172.63 L880.0,171.02 L884.0,169.14 L888.0,167.01 L892.0,164.66 L896.0,162.11 L900.0,159.41 L904.0,156.59 L908.0,153.68 L912.0,150.72 L916.0,147.75 L920.0,144.81 L924.0,141.94 L928.0,139.18 L932.0,136.55 L936.0,134.10 L940.0,131.86 L944.0,129.86 L948.0,128.11 L952.0,126.66 L956.0,125.50 L960.0,124.67 L964.0,124.17 L968.0,124.00 L972.0,124.17 L976.0,124.68 L980.0,125.52 L984.0,126.68 L988.0,128.14 L992.0,129.89 L996.0,131.90 L1000.0,134.14 L1004.0,136.59 L1008.0,139.22 L1012.0,141.99 L1016.0,144.86 L1020.0,147.80 L1024.0,150.77 L1028.0,153.72 L1032.0,156.63 L1036.0,159.45 L1040.0,162.15 L1044.0,164.69 L1048.0,167.04 L1052.0,169.17 L1056.0,171.05 L1060.0,172.65 L1064.0,173.96 L1068.0,174.95 L1072.0,175.62 L1076.0,175.96 L1080.0,175.96 L1084.0,175.62 L1088.0,174.94 L1092.0,173.94 L1096.0,172.63 L1100.0,171.02 L1104.0,169.14 L1108.0,167.01 L1112.0,164.66 L1116.0,162.11 L1120.0,159.41 L1124.0,156.59 L1128.0,153.68 L1132.0,150.72 L1136.0,147.75 L1140.0,144.81 L1144.0,141.94 L1148.0,139.18 L1152.0,136.55 L1156.0,134.10 L1160.0,131.86 L1164.0,129.86 L1168.0,128.11 L1172.0,126.66 L1176.0,125.50 L1180.0,124.67 L1184.0,124.17 L1188.0,124.00 L1192.0,124.17 L1196.0,124.68 L1200.0,125.52 L1204.0,126.68 L1208.0,128.14 L1212.0,129.89 L1216.0,131.90 L1220.0,134.14 L1224.0,136.59 L1228.0,139.22 L1232.0,141.99 L1236.0,144.86 L1240.0,147.80 L1244.0,150.77 L1248.0,153.72 L1252.0,156.63 L1256.0,159.45 L1260.0,162.15 L1264.0,164.69 L1268.0,167.04 L1272.0,169.17 L1276.0,171.05 L1280.0,172.65 L1284.0,173.96 L1288.0,174.95 L1292.0,175.62 L1296.0,175.96 L1300.0,175.96 L1304.0,175.62 L1308.0,174.94 L1312.0,173.94 L1316.0,172.63 L1320.0,171.02 L1324.0,169.14 L1328.0,167.01 L1332.0,164.66 L1336.0,162.11 L1340.0,159.41 L1344.0,156.59 L1348.0,153.68 L1352.0,150.72 L1356.0,147.75 L1360.0,144.81 L1364.0,141.94 L1368.0,139.18 L1372.0,136.55 L1376.0,134.10 L1380.0,131.86 L1384.0,129.86 L1388.0,128.11 L1392.0,126.66 L1396.0,125.50 L1400.0,124.67 L1404.0,124.17 L1408.0,124.00 L1412.0,124.17 L1416.0,124.68 L1420.0,125.52 L1424.0,126.68 L1428.0,128.14 L1432.0,129.89 L1436.0,131.90 L1440.0,134.14 L1444.0,136.59 L1448.0,139.22 L1452.0,141.99 L1456.0,144.86 L1460.0,147.80 L1464.0,150.77 L1468.0,153.72 L1472.0,156.63 L1476.0,159.45 L1480.0,162.15 L1484.0,164.69 L1488.0,167.04 L1492.0,169.17 L1496.0,171.05 L1500.0,172.65 L1504.0,173.96 L1508.0,174.95 L1512.0,175.62 L1516.0,175.96 L1520.0,175.96 L1524.0,175.62 L1528.0,174.94 L1532.0,173.94 L1536.0,172.63 L1540.0,171.02 L1544.0,169.14 L1548.0,167.01 L1552.0,164.66 L1556.0,162.11 L1560.0,159.41 L1564.0,156.59 L1568.0,153.68 L1572.0,150.72 L1576.0,147.75 L1580.0,144.81 L1584.0,141.94 L1588.0,139.18 L1592.0,136.55 L1596.0,134.10 L1600.0,131.86 L1604.0,129.86 L1608.0,128.11 L1612.0,126.66 L1616.0,125.50 L1620.0,124.67 L1624.0,124.17 L1628.0,124.00 L1632.0,124.17 L1636.0,124.68 L1640.0,125.52" fill="none" stroke="#4EC5D4" stroke-opacity="0.55" stroke-width="1.8" stroke-linecap="round"/>
  <path class="w w3" d="M-840.0,143.69 L-836.0,141.34 L-832.0,139.02 L-828.0,136.74 L-824.0,134.51 L-820.0,132.33 L-816.0,130.21 L-812.0,128.17 L-808.0,126.20 L-804.0,124.32 L-800.0,122.54 L-796.0,120.85 L-792.0,119.26 L-788.0,117.78 L-784.0,116.42 L-780.0,115.18 L-776.0,114.07 L-772.0,113.08 L-768.0,112.23 L-764.0,111.51 L-760.0,110.93 L-756.0,110.48 L-752.0,110.18 L-748.0,110.03 L-744.0,110.01 L-740.0,110.14 L-736.0,110.41 L-732.0,110.82 L-728.0,111.38 L-724.0,112.07 L-720.0,112.90 L-716.0,113.86 L-712.0,114.94 L-708.0,116.16 L-704.0,117.50 L-700.0,118.95 L-696.0,120.51 L-692.0,122.18 L-688.0,123.95 L-684.0,125.81 L-680.0,127.76 L-676.0,129.79 L-672.0,131.89 L-668.0,134.05 L-664.0,136.28 L-660.0,138.55 L-656.0,140.86 L-652.0,143.20 L-648.0,145.57 L-644.0,147.96 L-640.0,150.35 L-636.0,152.74 L-632.0,155.13 L-628.0,157.49 L-624.0,159.83 L-620.0,162.13 L-616.0,164.38 L-612.0,166.59 L-608.0,168.74 L-604.0,170.82 L-600.0,172.82 L-596.0,174.75 L-592.0,176.58 L-588.0,178.32 L-584.0,179.96 L-580.0,181.49 L-576.0,182.91 L-572.0,184.21 L-568.0,185.39 L-564.0,186.44 L-560.0,187.36 L-556.0,188.15 L-552.0,188.80 L-548.0,189.31 L-544.0,189.68 L-540.0,189.91 L-536.0,190.00 L-532.0,189.94 L-528.0,189.74 L-524.0,189.40 L-520.0,188.92 L-516.0,188.29 L-512.0,187.54 L-508.0,186.64 L-504.0,185.62 L-500.0,184.46 L-496.0,183.19 L-492.0,181.79 L-488.0,180.28 L-484.0,178.67 L-480.0,176.95 L-476.0,175.13 L-472.0,173.23 L-468.0,171.24 L-464.0,169.17 L-460.0,167.04 L-456.0,164.84 L-452.0,162.59 L-448.0,160.30 L-444.0,157.97 L-440.0,155.61 L-436.0,153.23 L-432.0,150.84 L-428.0,148.45 L-424.0,146.06 L-420.0,143.69 L-416.0,141.34 L-412.0,139.02 L-408.0,136.74 L-404.0,134.51 L-400.0,132.33 L-396.0,130.21 L-392.0,128.17 L-388.0,126.20 L-384.0,124.32 L-380.0,122.54 L-376.0,120.85 L-372.0,119.26 L-368.0,117.78 L-364.0,116.42 L-360.0,115.18 L-356.0,114.07 L-352.0,113.08 L-348.0,112.23 L-344.0,111.51 L-340.0,110.93 L-336.0,110.48 L-332.0,110.18 L-328.0,110.03 L-324.0,110.01 L-320.0,110.14 L-316.0,110.41 L-312.0,110.82 L-308.0,111.38 L-304.0,112.07 L-300.0,112.90 L-296.0,113.86 L-292.0,114.94 L-288.0,116.16 L-284.0,117.50 L-280.0,118.95 L-276.0,120.51 L-272.0,122.18 L-268.0,123.95 L-264.0,125.81 L-260.0,127.76 L-256.0,129.79 L-252.0,131.89 L-248.0,134.05 L-244.0,136.28 L-240.0,138.55 L-236.0,140.86 L-232.0,143.20 L-228.0,145.57 L-224.0,147.96 L-220.0,150.35 L-216.0,152.74 L-212.0,155.13 L-208.0,157.49 L-204.0,159.83 L-200.0,162.13 L-196.0,164.38 L-192.0,166.59 L-188.0,168.74 L-184.0,170.82 L-180.0,172.82 L-176.0,174.75 L-172.0,176.58 L-168.0,178.32 L-164.0,179.96 L-160.0,181.49 L-156.0,182.91 L-152.0,184.21 L-148.0,185.39 L-144.0,186.44 L-140.0,187.36 L-136.0,188.15 L-132.0,188.80 L-128.0,189.31 L-124.0,189.68 L-120.0,189.91 L-116.0,190.00 L-112.0,189.94 L-108.0,189.74 L-104.0,189.40 L-100.0,188.92 L-96.0,188.29 L-92.0,187.54 L-88.0,186.64 L-84.0,185.62 L-80.0,184.46 L-76.0,183.19 L-72.0,181.79 L-68.0,180.28 L-64.0,178.67 L-60.0,176.95 L-56.0,175.13 L-52.0,173.23 L-48.0,171.24 L-44.0,169.17 L-40.0,167.04 L-36.0,164.84 L-32.0,162.59 L-28.0,160.30 L-24.0,157.97 L-20.0,155.61 L-16.0,153.23 L-12.0,150.84 L-8.0,148.45 L-4.0,146.06 L0.0,143.69 L4.0,141.34 L8.0,139.02 L12.0,136.74 L16.0,134.51 L20.0,132.33 L24.0,130.21 L28.0,128.17 L32.0,126.20 L36.0,124.32 L40.0,122.54 L44.0,120.85 L48.0,119.26 L52.0,117.78 L56.0,116.42 L60.0,115.18 L64.0,114.07 L68.0,113.08 L72.0,112.23 L76.0,111.51 L80.0,110.93 L84.0,110.48 L88.0,110.18 L92.0,110.03 L96.0,110.01 L100.0,110.14 L104.0,110.41 L108.0,110.82 L112.0,111.38 L116.0,112.07 L120.0,112.90 L124.0,113.86 L128.0,114.94 L132.0,116.16 L136.0,117.50 L140.0,118.95 L144.0,120.51 L148.0,122.18 L152.0,123.95 L156.0,125.81 L160.0,127.76 L164.0,129.79 L168.0,131.89 L172.0,134.05 L176.0,136.28 L180.0,138.55 L184.0,140.86 L188.0,143.20 L192.0,145.57 L196.0,147.96 L200.0,150.35 L204.0,152.74 L208.0,155.13 L212.0,157.49 L216.0,159.83 L220.0,162.13 L224.0,164.38 L228.0,166.59 L232.0,168.74 L236.0,170.82 L240.0,172.82 L244.0,174.75 L248.0,176.58 L252.0,178.32 L256.0,179.96 L260.0,181.49 L264.0,182.91 L268.0,184.21 L272.0,185.39 L276.0,186.44 L280.0,187.36 L284.0,188.15 L288.0,188.80 L292.0,189.31 L296.0,189.68 L300.0,189.91 L304.0,190.00 L308.0,189.94 L312.0,189.74 L316.0,189.40 L320.0,188.92 L324.0,188.29 L328.0,187.54 L332.0,186.64 L336.0,185.62 L340.0,184.46 L344.0,183.19 L348.0,181.79 L352.0,180.28 L356.0,178.67 L360.0,176.95 L364.0,175.13 L368.0,173.23 L372.0,171.24 L376.0,169.17 L380.0,167.04 L384.0,164.84 L388.0,162.59 L392.0,160.30 L396.0,157.97 L400.0,155.61 L404.0,153.23 L408.0,150.84 L412.0,148.45 L416.0,146.06 L420.0,143.69 L424.0,141.34 L428.0,139.02 L432.0,136.74 L436.0,134.51 L440.0,132.33 L444.0,130.21 L448.0,128.17 L452.0,126.20 L456.0,124.32 L460.0,122.54 L464.0,120.85 L468.0,119.26 L472.0,117.78 L476.0,116.42 L480.0,115.18 L484.0,114.07 L488.0,113.08 L492.0,112.23 L496.0,111.51 L500.0,110.93 L504.0,110.48 L508.0,110.18 L512.0,110.03 L516.0,110.01 L520.0,110.14 L524.0,110.41 L528.0,110.82 L532.0,111.38 L536.0,112.07 L540.0,112.90 L544.0,113.86 L548.0,114.94 L552.0,116.16 L556.0,117.50 L560.0,118.95 L564.0,120.51 L568.0,122.18 L572.0,123.95 L576.0,125.81 L580.0,127.76 L584.0,129.79 L588.0,131.89 L592.0,134.05 L596.0,136.28 L600.0,138.55 L604.0,140.86 L608.0,143.20 L612.0,145.57 L616.0,147.96 L620.0,150.35 L624.0,152.74 L628.0,155.13 L632.0,157.49 L636.0,159.83 L640.0,162.13 L644.0,164.38 L648.0,166.59 L652.0,168.74 L656.0,170.82 L660.0,172.82 L664.0,174.75 L668.0,176.58 L672.0,178.32 L676.0,179.96 L680.0,181.49 L684.0,182.91 L688.0,184.21 L692.0,185.39 L696.0,186.44 L700.0,187.36 L704.0,188.15 L708.0,188.80 L712.0,189.31 L716.0,189.68 L720.0,189.91 L724.0,190.00 L728.0,189.94 L732.0,189.74 L736.0,189.40 L740.0,188.92 L744.0,188.29 L748.0,187.54 L752.0,186.64 L756.0,185.62 L760.0,184.46 L764.0,183.19 L768.0,181.79 L772.0,180.28 L776.0,178.67 L780.0,176.95 L784.0,175.13 L788.0,173.23 L792.0,171.24 L796.0,169.17 L800.0,167.04 L804.0,164.84 L808.0,162.59 L812.0,160.30 L816.0,157.97 L820.0,155.61 L824.0,153.23 L828.0,150.84 L832.0,148.45 L836.0,146.06 L840.0,143.69 L844.0,141.34 L848.0,139.02 L852.0,136.74 L856.0,134.51 L860.0,132.33 L864.0,130.21 L868.0,128.17 L872.0,126.20 L876.0,124.32 L880.0,122.54 L884.0,120.85 L888.0,119.26 L892.0,117.78 L896.0,116.42 L900.0,115.18 L904.0,114.07 L908.0,113.08 L912.0,112.23 L916.0,111.51 L920.0,110.93 L924.0,110.48 L928.0,110.18 L932.0,110.03 L936.0,110.01 L940.0,110.14 L944.0,110.41 L948.0,110.82 L952.0,111.38 L956.0,112.07 L960.0,112.90 L964.0,113.86 L968.0,114.94 L972.0,116.16 L976.0,117.50 L980.0,118.95 L984.0,120.51 L988.0,122.18 L992.0,123.95 L996.0,125.81 L1000.0,127.76 L1004.0,129.79 L1008.0,131.89 L1012.0,134.05 L1016.0,136.28 L1020.0,138.55 L1024.0,140.86 L1028.0,143.20 L1032.0,145.57 L1036.0,147.96 L1040.0,150.35 L1044.0,152.74 L1048.0,155.13 L1052.0,157.49 L1056.0,159.83 L1060.0,162.13 L1064.0,164.38 L1068.0,166.59 L1072.0,168.74 L1076.0,170.82 L1080.0,172.82 L1084.0,174.75 L1088.0,176.58 L1092.0,178.32 L1096.0,179.96 L1100.0,181.49 L1104.0,182.91 L1108.0,184.21 L1112.0,185.39 L1116.0,186.44 L1120.0,187.36 L1124.0,188.15 L1128.0,188.80 L1132.0,189.31 L1136.0,189.68 L1140.0,189.91 L1144.0,190.00 L1148.0,189.94 L1152.0,189.74 L1156.0,189.40 L1160.0,188.92 L1164.0,188.29 L1168.0,187.54 L1172.0,186.64 L1176.0,185.62 L1180.0,184.46 L1184.0,183.19 L1188.0,181.79 L1192.0,180.28 L1196.0,178.67 L1200.0,176.95 L1204.0,175.13 L1208.0,173.23 L1212.0,171.24 L1216.0,169.17 L1220.0,167.04 L1224.0,164.84 L1228.0,162.59 L1232.0,160.30 L1236.0,157.97 L1240.0,155.61 L1244.0,153.23 L1248.0,150.84 L1252.0,148.45 L1256.0,146.06 L1260.0,143.69 L1264.0,141.34 L1268.0,139.02 L1272.0,136.74 L1276.0,134.51 L1280.0,132.33 L1284.0,130.21 L1288.0,128.17 L1292.0,126.20 L1296.0,124.32 L1300.0,122.54 L1304.0,120.85 L1308.0,119.26 L1312.0,117.78 L1316.0,116.42 L1320.0,115.18 L1324.0,114.07 L1328.0,113.08 L1332.0,112.23 L1336.0,111.51 L1340.0,110.93 L1344.0,110.48 L1348.0,110.18 L1352.0,110.03 L1356.0,110.01 L1360.0,110.14 L1364.0,110.41 L1368.0,110.82 L1372.0,111.38 L1376.0,112.07 L1380.0,112.90 L1384.0,113.86 L1388.0,114.94 L1392.0,116.16 L1396.0,117.50 L1400.0,118.95 L1404.0,120.51 L1408.0,122.18 L1412.0,123.95 L1416.0,125.81 L1420.0,127.76 L1424.0,129.79 L1428.0,131.89 L1432.0,134.05 L1436.0,136.28 L1440.0,138.55 L1444.0,140.86 L1448.0,143.20 L1452.0,145.57 L1456.0,147.96 L1460.0,150.35 L1464.0,152.74 L1468.0,155.13 L1472.0,157.49 L1476.0,159.83 L1480.0,162.13 L1484.0,164.38 L1488.0,166.59 L1492.0,168.74 L1496.0,170.82 L1500.0,172.82 L1504.0,174.75 L1508.0,176.58 L1512.0,178.32 L1516.0,179.96 L1520.0,181.49 L1524.0,182.91 L1528.0,184.21 L1532.0,185.39 L1536.0,186.44 L1540.0,187.36 L1544.0,188.15 L1548.0,188.80 L1552.0,189.31 L1556.0,189.68 L1560.0,189.91 L1564.0,190.00 L1568.0,189.94 L1572.0,189.74 L1576.0,189.40 L1580.0,188.92 L1584.0,188.29 L1588.0,187.54 L1592.0,186.64 L1596.0,185.62 L1600.0,184.46 L1604.0,183.19 L1608.0,181.79 L1612.0,180.28 L1616.0,178.67 L1620.0,176.95 L1624.0,175.13 L1628.0,173.23 L1632.0,171.24 L1636.0,169.17 L1640.0,167.04 L1644.0,164.84 L1648.0,162.59 L1652.0,160.30 L1656.0,157.97 L1660.0,155.61 L1664.0,153.23 L1668.0,150.84 L1672.0,148.45 L1676.0,146.06 L1680.0,143.69 L1684.0,141.34 L1688.0,139.02 L1692.0,136.74 L1696.0,134.51 L1700.0,132.33 L1704.0,130.21 L1708.0,128.17 L1712.0,126.20 L1716.0,124.32 L1720.0,122.54 L1724.0,120.85 L1728.0,119.26 L1732.0,117.78 L1736.0,116.42 L1740.0,115.18 L1744.0,114.07 L1748.0,113.08 L1752.0,112.23 L1756.0,111.51 L1760.0,110.93 L1764.0,110.48 L1768.0,110.18 L1772.0,110.03 L1776.0,110.01 L1780.0,110.14 L1784.0,110.41 L1788.0,110.82 L1792.0,111.38 L1796.0,112.07 L1800.0,112.90 L1804.0,113.86 L1808.0,114.94 L1812.0,116.16 L1816.0,117.50 L1820.0,118.95 L1824.0,120.51 L1828.0,122.18 L1832.0,123.95 L1836.0,125.81 L1840.0,127.76 L1844.0,129.79 L1848.0,131.89 L1852.0,134.05 L1856.0,136.28 L1860.0,138.55 L1864.0,140.86 L1868.0,143.20 L1872.0,145.57 L1876.0,147.96 L1880.0,150.35 L1884.0,152.74 L1888.0,155.13 L1892.0,157.49 L1896.0,159.83 L1900.0,162.13 L1904.0,164.38 L1908.0,166.59 L1912.0,168.74 L1916.0,170.82 L1920.0,172.82 L1924.0,174.75 L1928.0,176.58 L1932.0,178.32 L1936.0,179.96 L1940.0,181.49 L1944.0,182.91 L1948.0,184.21 L1952.0,185.39 L1956.0,186.44 L1960.0,187.36 L1964.0,188.15 L1968.0,188.80 L1972.0,189.31 L1976.0,189.68 L1980.0,189.91 L1984.0,190.00 L1988.0,189.94 L1992.0,189.74 L1996.0,189.40 L2000.0,188.92 L2004.0,188.29 L2008.0,187.54 L2012.0,186.64 L2016.0,185.62 L2020.0,184.46 L2024.0,183.19 L2028.0,181.79 L2032.0,180.28 L2036.0,178.67 L2040.0,176.95" fill="none" stroke="#4EC5D4" stroke-opacity="0.65" stroke-width="2.0" stroke-linecap="round"/>
  </g>
  <rect x="0" y="0" width="1200" height="300" fill="url(#fade)"/>

  <text x="40" y="46" fill="#ffffff" fill-opacity="0.5" font-size="13" font-weight="600" letter-spacing="3">RESEARCH &amp; DEVELOPMENT</text>
  <text x="1160" y="46" text-anchor="end" fill="#4EC5D4" font-size="13" font-weight="700" letter-spacing="3">SCIENCE IS ART</text>

  <rect x="0" y="243" width="1200" height="34" fill="#ffffff"/>
  <text x="40"    y="266" fill="#000000" font-size="15" font-weight="800" letter-spacing="1">RESEARCHER</text>
  <text x="600.0" y="266" text-anchor="middle" fill="#000000" font-size="15" font-weight="800" letter-spacing="1">ENGINEER</text>
  <text x="1160" y="266" text-anchor="end" fill="#000000" font-size="15" font-weight="800" letter-spacing="1">CREATOR</text>

  <text x="34" y="388" font-size="128" font-weight="800" letter-spacing="-5" fill="#ffffff">Tong Shan<tspan fill="#4EC5D4">.</tspan> <tspan fill="#4EC5D4">单</tspan>彤</text>
</svg>
