<svg xmlns="http://www.w3.org/2000/svg" viewBox="0 0 1200 474" width="1200" height="474" role="img" aria-label="Tong Shan — Researcher, Engineer, Creator">
  <style>
  @keyframes drift0 { from { transform: translateX(0); } to { transform: translateX(-360px); } }
  .w0 { animation: drift0 13s linear infinite; }
  @keyframes drift1 { from { transform: translateX(0); } to { transform: translateX(300px); } }
  .w1 { animation: drift1 17s linear infinite; }
  @keyframes drift2 { from { transform: translateX(0); } to { transform: translateX(-220px); } }
  .w2 { animation: drift2 10s linear infinite; }
  @keyframes drift3 { from { transform: translateX(0); } to { transform: translateX(420px); } }
  .w3 { animation: drift3 21s linear infinite; }
    @media (prefers-reduced-motion: reduce) { .w { animation: none; } }
    text { font-family: 'Inter','Helvetica Neue',Helvetica,Arial,sans-serif; }
  </style>
  <defs>
    <linearGradient id="fade" x1="0" y1="0" x2="0" y2="1">
      <stop offset="0%" stop-color="#ffffff" stop-opacity="0"/>
      <stop offset="75%" stop-color="#ffffff" stop-opacity="0"/>
      <stop offset="100%" stop-color="#ffffff" stop-opacity="1"/>
    </linearGradient>
  </defs>

  <rect width="1200" height="474" fill="#ffffff"/>

  <g>
  <path class="w w0" d="M-720.0,130.00 L-716.0,132.37 L-712.0,134.73 L-708.0,137.07 L-704.0,139.37 L-700.0,141.63 L-696.0,143.83 L-692.0,145.96 L-688.0,148.02 L-684.0,149.98 L-680.0,151.85 L-676.0,153.62 L-672.0,155.27 L-668.0,156.79 L-664.0,158.19 L-660.0,159.44 L-656.0,160.56 L-652.0,161.52 L-648.0,162.34 L-644.0,162.99 L-640.0,163.48 L-636.0,163.81 L-632.0,163.98 L-628.0,163.98 L-624.0,163.81 L-620.0,163.48 L-616.0,162.99 L-612.0,162.34 L-608.0,161.52 L-604.0,160.56 L-600.0,159.44 L-596.0,158.19 L-592.0,156.79 L-588.0,155.27 L-584.0,153.62 L-580.0,151.85 L-576.0,149.98 L-572.0,148.02 L-568.0,145.96 L-564.0,143.83 L-560.0,141.63 L-556.0,139.37 L-552.0,137.07 L-548.0,134.73 L-544.0,132.37 L-540.0,130.00 L-536.0,127.63 L-532.0,125.27 L-528.0,122.93 L-524.0,120.63 L-520.0,118.37 L-516.0,116.17 L-512.0,114.04 L-508.0,111.98 L-504.0,110.02 L-500.0,108.15 L-496.0,106.38 L-492.0,104.73 L-488.0,103.21 L-484.0,101.81 L-480.0,100.56 L-476.0,99.44 L-472.0,98.48 L-468.0,97.66 L-464.0,97.01 L-460.0,96.52 L-456.0,96.19 L-452.0,96.02 L-448.0,96.02 L-444.0,96.19 L-440.0,96.52 L-436.0,97.01 L-432.0,97.66 L-428.0,98.48 L-424.0,99.44 L-420.0,100.56 L-416.0,101.81 L-412.0,103.21 L-408.0,104.73 L-404.0,106.38 L-400.0,108.15 L-396.0,110.02 L-392.0,111.98 L-388.0,114.04 L-384.0,116.17 L-380.0,118.37 L-376.0,120.63 L-372.0,122.93 L-368.0,125.27 L-364.0,127.63 L-360.0,130.00 L-356.0,132.37 L-352.0,134.73 L-348.0,137.07 L-344.0,139.37 L-340.0,141.63 L-336.0,143.83 L-332.0,145.96 L-328.0,148.02 L-324.0,149.98 L-320.0,151.85 L-316.0,153.62 L-312.0,155.27 L-308.0,156.79 L-304.0,158.19 L-300.0,159.44 L-296.0,160.56 L-292.0,161.52 L-288.0,162.34 L-284.0,162.99 L-280.0,163.48 L-276.0,163.81 L-272.0,163.98 L-268.0,163.98 L-264.0,163.81 L-260.0,163.48 L-256.0,162.99 L-252.0,162.34 L-248.0,161.52 L-244.0,160.56 L-240.0,159.44 L-236.0,158.19 L-232.0,156.79 L-228.0,155.27 L-224.0,153.62 L-220.0,151.85 L-216.0,149.98 L-212.0,148.02 L-208.0,145.96 L-204.0,143.83 L-200.0,141.63 L-196.0,139.37 L-192.0,137.07 L-188.0,134.73 L-184.0,132.37 L-180.0,130.00 L-176.0,127.63 L-172.0,125.27 L-168.0,122.93 L-164.0,120.63 L-160.0,118.37 L-156.0,116.17 L-152.0,114.04 L-148.0,111.98 L-144.0,110.02 L-140.0,108.15 L-136.0,106.38 L-132.0,104.73 L-128.0,103.21 L-124.0,101.81 L-120.0,100.56 L-116.0,99.44 L-112.0,98.48 L-108.0,97.66 L-104.0,97.01 L-100.0,96.52 L-96.0,96.19 L-92.0,96.02 L-88.0,96.02 L-84.0,96.19 L-80.0,96.52 L-76.0,97.01 L-72.0,97.66 L-68.0,98.48 L-64.0,99.44 L-60.0,100.56 L-56.0,101.81 L-52.0,103.21 L-48.0,104.73 L-44.0,106.38 L-40.0,108.15 L-36.0,110.02 L-32.0,111.98 L-28.0,114.04 L-24.0,116.17 L-20.0,118.37 L-16.0,120.63 L-12.0,122.93 L-8.0,125.27 L-4.0,127.63 L0.0,130.00 L4.0,132.37 L8.0,134.73 L12.0,137.07 L16.0,139.37 L20.0,141.63 L24.0,143.83 L28.0,145.96 L32.0,148.02 L36.0,149.98 L40.0,151.85 L44.0,153.62 L48.0,155.27 L52.0,156.79 L56.0,158.19 L60.0,159.44 L64.0,160.56 L68.0,161.52 L72.0,162.34 L76.0,162.99 L80.0,163.48 L84.0,163.81 L88.0,163.98 L92.0,163.98 L96.0,163.81 L100.0,163.48 L104.0,162.99 L108.0,162.34 L112.0,161.52 L116.0,160.56 L120.0,159.44 L124.0,158.19 L128.0,156.79 L132.0,155.27 L136.0,153.62 L140.0,151.85 L144.0,149.98 L148.0,148.02 L152.0,145.96 L156.0,143.83 L160.0,141.63 L164.0,139.37 L168.0,137.07 L172.0,134.73 L176.0,132.37 L180.0,130.00 L184.0,127.63 L188.0,125.27 L192.0,122.93 L196.0,120.63 L200.0,118.37 L204.0,116.17 L208.0,114.04 L212.0,111.98 L216.0,110.02 L220.0,108.15 L224.0,106.38 L228.0,104.73 L232.0,103.21 L236.0,101.81 L240.0,100.56 L244.0,99.44 L248.0,98.48 L252.0,97.66 L256.0,97.01 L260.0,96.52 L264.0,96.19 L268.0,96.02 L272.0,96.02 L276.0,96.19 L280.0,96.52 L284.0,97.01 L288.0,97.66 L292.0,98.48 L296.0,99.44 L300.0,100.56 L304.0,101.81 L308.0,103.21 L312.0,104.73 L316.0,106.38 L320.0,108.15 L324.0,110.02 L328.0,111.98 L332.0,114.04 L336.0,116.17 L340.0,118.37 L344.0,120.63 L348.0,122.93 L352.0,125.27 L356.0,127.63 L360.0,130.00 L364.0,132.37 L368.0,134.73 L372.0,137.07 L376.0,139.37 L380.0,141.63 L384.0,143.83 L388.0,145.96 L392.0,148.02 L396.0,149.98 L400.0,151.85 L404.0,153.62 L408.0,155.27 L412.0,156.79 L416.0,158.19 L420.0,159.44 L424.0,160.56 L428.0,161.52 L432.0,162.34 L436.0,162.99 L440.0,163.48 L444.0,163.81 L448.0,163.98 L452.0,163.98 L456.0,163.81 L460.0,163.48 L464.0,162.99 L468.0,162.34 L472.0,161.52 L476.0,160.56 L480.0,159.44 L484.0,158.19 L488.0,156.79 L492.0,155.27 L496.0,153.62 L500.0,151.85 L504.0,149.98 L508.0,148.02 L512.0,145.96 L516.0,143.83 L520.0,141.63 L524.0,139.37 L528.0,137.07 L532.0,134.73 L536.0,132.37 L540.0,130.00 L544.0,127.63 L548.0,125.27 L552.0,122.93 L556.0,120.63 L560.0,118.37 L564.0,116.17 L568.0,114.04 L572.0,111.98 L576.0,110.02 L580.0,108.15 L584.0,106.38 L588.0,104.73 L592.0,103.21 L596.0,101.81 L600.0,100.56 L604.0,99.44 L608.0,98.48 L612.0,97.66 L616.0,97.01 L620.0,96.52 L624.0,96.19 L628.0,96.02 L632.0,96.02 L636.0,96.19 L640.0,96.52 L644.0,97.01 L648.0,97.66 L652.0,98.48 L656.0,99.44 L660.0,100.56 L664.0,101.81 L668.0,103.21 L672.0,104.73 L676.0,106.38 L680.0,108.15 L684.0,110.02 L688.0,111.98 L692.0,114.04 L696.0,116.17 L700.0,118.37 L704.0,120.63 L708.0,122.93 L712.0,125.27 L716.0,127.63 L720.0,130.00 L724.0,132.37 L728.0,134.73 L732.0,137.07 L736.0,139.37 L740.0,141.63 L744.0,143.83 L748.0,145.96 L752.0,148.02 L756.0,149.98 L760.0,151.85 L764.0,153.62 L768.0,155.27 L772.0,156.79 L776.0,158.19 L780.0,159.44 L784.0,160.56 L788.0,161.52 L792.0,162.34 L796.0,162.99 L800.0,163.48 L804.0,163.81 L808.0,163.98 L812.0,163.98 L816.0,163.81 L820.0,163.48 L824.0,162.99 L828.0,162.34 L832.0,161.52 L836.0,160.56 L840.0,159.44 L844.0,158.19 L848.0,156.79 L852.0,155.27 L856.0,153.62 L860.0,151.85 L864.0,149.98 L868.0,148.02 L872.0,145.96 L876.0,143.83 L880.0,141.63 L884.0,139.37 L888.0,137.07 L892.0,134.73 L896.0,132.37 L900.0,130.00 L904.0,127.63 L908.0,125.27 L912.0,122.93 L916.0,120.63 L920.0,118.37 L924.0,116.17 L928.0,114.04 L932.0,111.98 L936.0,110.02 L940.0,108.15 L944.0,106.38 L948.0,104.73 L952.0,103.21 L956.0,101.81 L960.0,100.56 L964.0,99.44 L968.0,98.48 L972.0,97.66 L976.0,97.01 L980.0,96.52 L984.0,96.19 L988.0,96.02 L992.0,96.02 L996.0,96.19 L1000.0,96.52 L1004.0,97.01 L1008.0,97.66 L1012.0,98.48 L1016.0,99.44 L1020.0,100.56 L1024.0,101.81 L1028.0,103.21 L1032.0,104.73 L1036.0,106.38 L1040.0,108.15 L1044.0,110.02 L1048.0,111.98 L1052.0,114.04 L1056.0,116.17 L1060.0,118.37 L1064.0,120.63 L1068.0,122.93 L1072.0,125.27 L1076.0,127.63 L1080.0,130.00 L1084.0,132.37 L1088.0,134.73 L1092.0,137.07 L1096.0,139.37 L1100.0,141.63 L1104.0,143.83 L1108.0,145.96 L1112.0,148.02 L1116.0,149.98 L1120.0,151.85 L1124.0,153.62 L1128.0,155.27 L1132.0,156.79 L1136.0,158.19 L1140.0,159.44 L1144.0,160.56 L1148.0,161.52 L1152.0,162.34 L1156.0,162.99 L1160.0,163.48 L1164.0,163.81 L1168.0,163.98 L1172.0,163.98 L1176.0,163.81 L1180.0,163.48 L1184.0,162.99 L1188.0,162.34 L1192.0,161.52 L1196.0,160.56 L1200.0,159.44 L1204.0,158.19 L1208.0,156.79 L1212.0,155.27 L1216.0,153.62 L1220.0,151.85 L1224.0,149.98 L1228.0,148.02 L1232.0,145.96 L1236.0,143.83 L1240.0,141.63 L1244.0,139.37 L1248.0,137.07 L1252.0,134.73 L1256.0,132.37 L1260.0,130.00 L1264.0,127.63 L1268.0,125.27 L1272.0,122.93 L1276.0,120.63 L1280.0,118.37 L1284.0,116.17 L1288.0,114.04 L1292.0,111.98 L1296.0,110.02 L1300.0,108.15 L1304.0,106.38 L1308.0,104.73 L1312.0,103.21 L1316.0,101.81 L1320.0,100.56 L1324.0,99.44 L1328.0,98.48 L1332.0,97.66 L1336.0,97.01 L1340.0,96.52 L1344.0,96.19 L1348.0,96.02 L1352.0,96.02 L1356.0,96.19 L1360.0,96.52 L1364.0,97.01 L1368.0,97.66 L1372.0,98.48 L1376.0,99.44 L1380.0,100.56 L1384.0,101.81 L1388.0,103.21 L1392.0,104.73 L1396.0,106.38 L1400.0,108.15 L1404.0,110.02 L1408.0,111.98 L1412.0,114.04 L1416.0,116.17 L1420.0,118.37 L1424.0,120.63 L1428.0,122.93 L1432.0,125.27 L1436.0,127.63 L1440.0,130.00 L1444.0,132.37 L1448.0,134.73 L1452.0,137.07 L1456.0,139.37 L1460.0,141.63 L1464.0,143.83 L1468.0,145.96 L1472.0,148.02 L1476.0,149.98 L1480.0,151.85 L1484.0,153.62 L1488.0,155.27 L1492.0,156.79 L1496.0,158.19 L1500.0,159.44 L1504.0,160.56 L1508.0,161.52 L1512.0,162.34 L1516.0,162.99 L1520.0,163.48 L1524.0,163.81 L1528.0,163.98 L1532.0,163.98 L1536.0,163.81 L1540.0,163.48 L1544.0,162.99 L1548.0,162.34 L1552.0,161.52 L1556.0,160.56 L1560.0,159.44 L1564.0,158.19 L1568.0,156.79 L1572.0,155.27 L1576.0,153.62 L1580.0,151.85 L1584.0,149.98 L1588.0,148.02 L1592.0,145.96 L1596.0,143.83 L1600.0,141.63 L1604.0,139.37 L1608.0,137.07 L1612.0,134.73 L1616.0,132.37 L1620.0,130.00 L1624.0,127.63 L1628.0,125.27 L1632.0,122.93 L1636.0,120.63 L1640.0,118.37 L1644.0,116.17 L1648.0,114.04 L1652.0,111.98 L1656.0,110.02 L1660.0,108.15 L1664.0,106.38 L1668.0,104.73 L1672.0,103.21 L1676.0,101.81 L1680.0,100.56 L1684.0,99.44 L1688.0,98.48 L1692.0,97.66 L1696.0,97.01 L1700.0,96.52 L1704.0,96.19 L1708.0,96.02 L1712.0,96.02 L1716.0,96.19 L1720.0,96.52 L1724.0,97.01 L1728.0,97.66 L1732.0,98.48 L1736.0,99.44 L1740.0,100.56 L1744.0,101.81 L1748.0,103.21 L1752.0,104.73 L1756.0,106.38 L1760.0,108.15 L1764.0,110.02 L1768.0,111.98 L1772.0,114.04 L1776.0,116.17 L1780.0,118.37 L1784.0,120.63 L1788.0,122.93 L1792.0,125.27 L1796.0,127.63 L1800.0,130.00 L1804.0,132.37 L1808.0,134.73 L1812.0,137.07 L1816.0,139.37 L1820.0,141.63 L1824.0,143.83 L1828.0,145.96 L1832.0,148.02 L1836.0,149.98 L1840.0,151.85 L1844.0,153.62 L1848.0,155.27 L1852.0,156.79 L1856.0,158.19 L1860.0,159.44 L1864.0,160.56 L1868.0,161.52 L1872.0,162.34 L1876.0,162.99 L1880.0,163.48 L1884.0,163.81 L1888.0,163.98 L1892.0,163.98 L1896.0,163.81 L1900.0,163.48 L1904.0,162.99 L1908.0,162.34 L1912.0,161.52 L1916.0,160.56 L1920.0,159.44" fill="none" stroke="#1495A8" stroke-opacity="0.41" stroke-width="2.0" stroke-linecap="round"/>
  <path class="w w1" d="M-600.0,171.00 L-596.0,172.60 L-592.0,173.90 L-588.0,174.90 L-584.0,175.58 L-580.0,175.94 L-576.0,175.98 L-572.0,175.69 L-568.0,175.09 L-564.0,174.17 L-560.0,172.94 L-556.0,171.41 L-552.0,169.58 L-548.0,167.48 L-544.0,165.12 L-540.0,162.51 L-536.0,159.68 L-532.0,156.63 L-528.0,153.40 L-524.0,150.00 L-520.0,146.47 L-516.0,142.81 L-512.0,139.07 L-508.0,135.27 L-504.0,131.42 L-500.0,127.57 L-496.0,123.74 L-492.0,119.95 L-488.0,116.22 L-484.0,112.60 L-480.0,109.10 L-476.0,105.74 L-472.0,102.56 L-468.0,99.56 L-464.0,96.78 L-460.0,94.24 L-456.0,91.94 L-452.0,89.91 L-448.0,88.17 L-444.0,86.71 L-440.0,85.56 L-436.0,84.72 L-432.0,84.20 L-428.0,84.00 L-424.0,84.13 L-420.0,84.57 L-416.0,85.33 L-412.0,86.41 L-408.0,87.79 L-404.0,89.47 L-400.0,91.43 L-396.0,93.67 L-392.0,96.15 L-388.0,98.88 L-384.0,101.82 L-380.0,104.96 L-376.0,108.28 L-372.0,111.75 L-368.0,115.35 L-364.0,119.05 L-360.0,122.82 L-356.0,126.65 L-352.0,130.50 L-348.0,134.35 L-344.0,138.17 L-340.0,141.93 L-336.0,145.60 L-332.0,149.17 L-328.0,152.60 L-324.0,155.87 L-320.0,158.96 L-316.0,161.85 L-312.0,164.52 L-308.0,166.94 L-304.0,169.11 L-300.0,171.00 L-296.0,172.60 L-292.0,173.90 L-288.0,174.90 L-284.0,175.58 L-280.0,175.94 L-276.0,175.98 L-272.0,175.69 L-268.0,175.09 L-264.0,174.17 L-260.0,172.94 L-256.0,171.41 L-252.0,169.58 L-248.0,167.48 L-244.0,165.12 L-240.0,162.51 L-236.0,159.68 L-232.0,156.63 L-228.0,153.40 L-224.0,150.00 L-220.0,146.47 L-216.0,142.81 L-212.0,139.07 L-208.0,135.27 L-204.0,131.42 L-200.0,127.57 L-196.0,123.74 L-192.0,119.95 L-188.0,116.22 L-184.0,112.60 L-180.0,109.10 L-176.0,105.74 L-172.0,102.56 L-168.0,99.56 L-164.0,96.78 L-160.0,94.24 L-156.0,91.94 L-152.0,89.91 L-148.0,88.17 L-144.0,86.71 L-140.0,85.56 L-136.0,84.72 L-132.0,84.20 L-128.0,84.00 L-124.0,84.13 L-120.0,84.57 L-116.0,85.33 L-112.0,86.41 L-108.0,87.79 L-104.0,89.47 L-100.0,91.43 L-96.0,93.67 L-92.0,96.15 L-88.0,98.88 L-84.0,101.82 L-80.0,104.96 L-76.0,108.28 L-72.0,111.75 L-68.0,115.35 L-64.0,119.05 L-60.0,122.82 L-56.0,126.65 L-52.0,130.50 L-48.0,134.35 L-44.0,138.17 L-40.0,141.93 L-36.0,145.60 L-32.0,149.17 L-28.0,152.60 L-24.0,155.87 L-20.0,158.96 L-16.0,161.85 L-12.0,164.52 L-8.0,166.94 L-4.0,169.11 L0.0,171.00 L4.0,172.60 L8.0,173.90 L12.0,174.90 L16.0,175.58 L20.0,175.94 L24.0,175.98 L28.0,175.69 L32.0,175.09 L36.0,174.17 L40.0,172.94 L44.0,171.41 L48.0,169.58 L52.0,167.48 L56.0,165.12 L60.0,162.51 L64.0,159.68 L68.0,156.63 L72.0,153.40 L76.0,150.00 L80.0,146.47 L84.0,142.81 L88.0,139.07 L92.0,135.27 L96.0,131.42 L100.0,127.57 L104.0,123.74 L108.0,119.95 L112.0,116.22 L116.0,112.60 L120.0,109.10 L124.0,105.74 L128.0,102.56 L132.0,99.56 L136.0,96.78 L140.0,94.24 L144.0,91.94 L148.0,89.91 L152.0,88.17 L156.0,86.71 L160.0,85.56 L164.0,84.72 L168.0,84.20 L172.0,84.00 L176.0,84.13 L180.0,84.57 L184.0,85.33 L188.0,86.41 L192.0,87.79 L196.0,89.47 L200.0,91.43 L204.0,93.67 L208.0,96.15 L212.0,98.88 L216.0,101.82 L220.0,104.96 L224.0,108.28 L228.0,111.75 L232.0,115.35 L236.0,119.05 L240.0,122.82 L244.0,126.65 L248.0,130.50 L252.0,134.35 L256.0,138.17 L260.0,141.93 L264.0,145.60 L268.0,149.17 L272.0,152.60 L276.0,155.87 L280.0,158.96 L284.0,161.85 L288.0,164.52 L292.0,166.94 L296.0,169.11 L300.0,171.00 L304.0,172.60 L308.0,173.90 L312.0,174.90 L316.0,175.58 L320.0,175.94 L324.0,175.98 L328.0,175.69 L332.0,175.09 L336.0,174.17 L340.0,172.94 L344.0,171.41 L348.0,169.58 L352.0,167.48 L356.0,165.12 L360.0,162.51 L364.0,159.68 L368.0,156.63 L372.0,153.40 L376.0,150.00 L380.0,146.47 L384.0,142.81 L388.0,139.07 L392.0,135.27 L396.0,131.42 L400.0,127.57 L404.0,123.74 L408.0,119.95 L412.0,116.22 L416.0,112.60 L420.0,109.10 L424.0,105.74 L428.0,102.56 L432.0,99.56 L436.0,96.78 L440.0,94.24 L444.0,91.94 L448.0,89.91 L452.0,88.17 L456.0,86.71 L460.0,85.56 L464.0,84.72 L468.0,84.20 L472.0,84.00 L476.0,84.13 L480.0,84.57 L484.0,85.33 L488.0,86.41 L492.0,87.79 L496.0,89.47 L500.0,91.43 L504.0,93.67 L508.0,96.15 L512.0,98.88 L516.0,101.82 L520.0,104.96 L524.0,108.28 L528.0,111.75 L532.0,115.35 L536.0,119.05 L540.0,122.82 L544.0,126.65 L548.0,130.50 L552.0,134.35 L556.0,138.17 L560.0,141.93 L564.0,145.60 L568.0,149.17 L572.0,152.60 L576.0,155.87 L580.0,158.96 L584.0,161.85 L588.0,164.52 L592.0,166.94 L596.0,169.11 L600.0,171.00 L604.0,172.60 L608.0,173.90 L612.0,174.90 L616.0,175.58 L620.0,175.94 L624.0,175.98 L628.0,175.69 L632.0,175.09 L636.0,174.17 L640.0,172.94 L644.0,171.41 L648.0,169.58 L652.0,167.48 L656.0,165.12 L660.0,162.51 L664.0,159.68 L668.0,156.63 L672.0,153.40 L676.0,150.00 L680.0,146.47 L684.0,142.81 L688.0,139.07 L692.0,135.27 L696.0,131.42 L700.0,127.57 L704.0,123.74 L708.0,119.95 L712.0,116.22 L716.0,112.60 L720.0,109.10 L724.0,105.74 L728.0,102.56 L732.0,99.56 L736.0,96.78 L740.0,94.24 L744.0,91.94 L748.0,89.91 L752.0,88.17 L756.0,86.71 L760.0,85.56 L764.0,84.72 L768.0,84.20 L772.0,84.00 L776.0,84.13 L780.0,84.57 L784.0,85.33 L788.0,86.41 L792.0,87.79 L796.0,89.47 L800.0,91.43 L804.0,93.67 L808.0,96.15 L812.0,98.88 L816.0,101.82 L820.0,104.96 L824.0,108.28 L828.0,111.75 L832.0,115.35 L836.0,119.05 L840.0,122.82 L844.0,126.65 L848.0,130.50 L852.0,134.35 L856.0,138.17 L860.0,141.93 L864.0,145.60 L868.0,149.17 L872.0,152.60 L876.0,155.87 L880.0,158.96 L884.0,161.85 L888.0,164.52 L892.0,166.94 L896.0,169.11 L900.0,171.00 L904.0,172.60 L908.0,173.90 L912.0,174.90 L916.0,175.58 L920.0,175.94 L924.0,175.98 L928.0,175.69 L932.0,175.09 L936.0,174.17 L940.0,172.94 L944.0,171.41 L948.0,169.58 L952.0,167.48 L956.0,165.12 L960.0,162.51 L964.0,159.68 L968.0,156.63 L972.0,153.40 L976.0,150.00 L980.0,146.47 L984.0,142.81 L988.0,139.07 L992.0,135.27 L996.0,131.42 L1000.0,127.57 L1004.0,123.74 L1008.0,119.95 L1012.0,116.22 L1016.0,112.60 L1020.0,109.10 L1024.0,105.74 L1028.0,102.56 L1032.0,99.56 L1036.0,96.78 L1040.0,94.24 L1044.0,91.94 L1048.0,89.91 L1052.0,88.17 L1056.0,86.71 L1060.0,85.56 L1064.0,84.72 L1068.0,84.20 L1072.0,84.00 L1076.0,84.13 L1080.0,84.57 L1084.0,85.33 L1088.0,86.41 L1092.0,87.79 L1096.0,89.47 L1100.0,91.43 L1104.0,93.67 L1108.0,96.15 L1112.0,98.88 L1116.0,101.82 L1120.0,104.96 L1124.0,108.28 L1128.0,111.75 L1132.0,115.35 L1136.0,119.05 L1140.0,122.82 L1144.0,126.65 L1148.0,130.50 L1152.0,134.35 L1156.0,138.17 L1160.0,141.93 L1164.0,145.60 L1168.0,149.17 L1172.0,152.60 L1176.0,155.87 L1180.0,158.96 L1184.0,161.85 L1188.0,164.52 L1192.0,166.94 L1196.0,169.11 L1200.0,171.00 L1204.0,172.60 L1208.0,173.90 L1212.0,174.90 L1216.0,175.58 L1220.0,175.94 L1224.0,175.98 L1228.0,175.69 L1232.0,175.09 L1236.0,174.17 L1240.0,172.94 L1244.0,171.41 L1248.0,169.58 L1252.0,167.48 L1256.0,165.12 L1260.0,162.51 L1264.0,159.68 L1268.0,156.63 L1272.0,153.40 L1276.0,150.00 L1280.0,146.47 L1284.0,142.81 L1288.0,139.07 L1292.0,135.27 L1296.0,131.42 L1300.0,127.57 L1304.0,123.74 L1308.0,119.95 L1312.0,116.22 L1316.0,112.60 L1320.0,109.10 L1324.0,105.74 L1328.0,102.56 L1332.0,99.56 L1336.0,96.78 L1340.0,94.24 L1344.0,91.94 L1348.0,89.91 L1352.0,88.17 L1356.0,86.71 L1360.0,85.56 L1364.0,84.72 L1368.0,84.20 L1372.0,84.00 L1376.0,84.13 L1380.0,84.57 L1384.0,85.33 L1388.0,86.41 L1392.0,87.79 L1396.0,89.47 L1400.0,91.43 L1404.0,93.67 L1408.0,96.15 L1412.0,98.88 L1416.0,101.82 L1420.0,104.96 L1424.0,108.28 L1428.0,111.75 L1432.0,115.35 L1436.0,119.05 L1440.0,122.82 L1444.0,126.65 L1448.0,130.50 L1452.0,134.35 L1456.0,138.17 L1460.0,141.93 L1464.0,145.60 L1468.0,149.17 L1472.0,152.60 L1476.0,155.87 L1480.0,158.96 L1484.0,161.85 L1488.0,164.52 L1492.0,166.94 L1496.0,169.11 L1500.0,171.00 L1504.0,172.60 L1508.0,173.90 L1512.0,174.90 L1516.0,175.58 L1520.0,175.94 L1524.0,175.98 L1528.0,175.69 L1532.0,175.09 L1536.0,174.17 L1540.0,172.94 L1544.0,171.41 L1548.0,169.58 L1552.0,167.48 L1556.0,165.12 L1560.0,162.51 L1564.0,159.68 L1568.0,156.63 L1572.0,153.40 L1576.0,150.00 L1580.0,146.47 L1584.0,142.81 L1588.0,139.07 L1592.0,135.27 L1596.0,131.42 L1600.0,127.57 L1604.0,123.74 L1608.0,119.95 L1612.0,116.22 L1616.0,112.60 L1620.0,109.10 L1624.0,105.74 L1628.0,102.56 L1632.0,99.56 L1636.0,96.78 L1640.0,94.24 L1644.0,91.94 L1648.0,89.91 L1652.0,88.17 L1656.0,86.71 L1660.0,85.56 L1664.0,84.72 L1668.0,84.20 L1672.0,84.00 L1676.0,84.13 L1680.0,84.57 L1684.0,85.33 L1688.0,86.41 L1692.0,87.79 L1696.0,89.47 L1700.0,91.43 L1704.0,93.67 L1708.0,96.15 L1712.0,98.88 L1716.0,101.82 L1720.0,104.96 L1724.0,108.28 L1728.0,111.75 L1732.0,115.35 L1736.0,119.05 L1740.0,122.82 L1744.0,126.65 L1748.0,130.50 L1752.0,134.35 L1756.0,138.17 L1760.0,141.93 L1764.0,145.60 L1768.0,149.17 L1772.0,152.60 L1776.0,155.87 L1780.0,158.96 L1784.0,161.85 L1788.0,164.52 L1792.0,166.94 L1796.0,169.11 L1800.0,171.00" fill="none" stroke="#1495A8" stroke-opacity="0.54" stroke-width="2.5" stroke-linecap="round"/>
  <path class="w w2" d="M-440.0,151.02 L-436.0,149.14 L-432.0,147.01 L-428.0,144.66 L-424.0,142.11 L-420.0,139.41 L-416.0,136.59 L-412.0,133.68 L-408.0,130.72 L-404.0,127.75 L-400.0,124.81 L-396.0,121.94 L-392.0,119.18 L-388.0,116.55 L-384.0,114.10 L-380.0,111.86 L-376.0,109.86 L-372.0,108.11 L-368.0,106.66 L-364.0,105.50 L-360.0,104.67 L-356.0,104.17 L-352.0,104.00 L-348.0,104.17 L-344.0,104.68 L-340.0,105.52 L-336.0,106.68 L-332.0,108.14 L-328.0,109.89 L-324.0,111.90 L-320.0,114.14 L-316.0,116.59 L-312.0,119.22 L-308.0,121.99 L-304.0,124.86 L-300.0,127.80 L-296.0,130.77 L-292.0,133.72 L-288.0,136.63 L-284.0,139.45 L-280.0,142.15 L-276.0,144.69 L-272.0,147.04 L-268.0,149.17 L-264.0,151.05 L-260.0,152.65 L-256.0,153.96 L-252.0,154.95 L-248.0,155.62 L-244.0,155.96 L-240.0,155.96 L-236.0,155.62 L-232.0,154.94 L-228.0,153.94 L-224.0,152.63 L-220.0,151.02 L-216.0,149.14 L-212.0,147.01 L-208.0,144.66 L-204.0,142.11 L-200.0,139.41 L-196.0,136.59 L-192.0,133.68 L-188.0,130.72 L-184.0,127.75 L-180.0,124.81 L-176.0,121.94 L-172.0,119.18 L-168.0,116.55 L-164.0,114.10 L-160.0,111.86 L-156.0,109.86 L-152.0,108.11 L-148.0,106.66 L-144.0,105.50 L-140.0,104.67 L-136.0,104.17 L-132.0,104.00 L-128.0,104.17 L-124.0,104.68 L-120.0,105.52 L-116.0,106.68 L-112.0,108.14 L-108.0,109.89 L-104.0,111.90 L-100.0,114.14 L-96.0,116.59 L-92.0,119.22 L-88.0,121.99 L-84.0,124.86 L-80.0,127.80 L-76.0,130.77 L-72.0,133.72 L-68.0,136.63 L-64.0,139.45 L-60.0,142.15 L-56.0,144.69 L-52.0,147.04 L-48.0,149.17 L-44.0,151.05 L-40.0,152.65 L-36.0,153.96 L-32.0,154.95 L-28.0,155.62 L-24.0,155.96 L-20.0,155.96 L-16.0,155.62 L-12.0,154.94 L-8.0,153.94 L-4.0,152.63 L0.0,151.02 L4.0,149.14 L8.0,147.01 L12.0,144.66 L16.0,142.11 L20.0,139.41 L24.0,136.59 L28.0,133.68 L32.0,130.72 L36.0,127.75 L40.0,124.81 L44.0,121.94 L48.0,119.18 L52.0,116.55 L56.0,114.10 L60.0,111.86 L64.0,109.86 L68.0,108.11 L72.0,106.66 L76.0,105.50 L80.0,104.67 L84.0,104.17 L88.0,104.00 L92.0,104.17 L96.0,104.68 L100.0,105.52 L104.0,106.68 L108.0,108.14 L112.0,109.89 L116.0,111.90 L120.0,114.14 L124.0,116.59 L128.0,119.22 L132.0,121.99 L136.0,124.86 L140.0,127.80 L144.0,130.77 L148.0,133.72 L152.0,136.63 L156.0,139.45 L160.0,142.15 L164.0,144.69 L168.0,147.04 L172.0,149.17 L176.0,151.05 L180.0,152.65 L184.0,153.96 L188.0,154.95 L192.0,155.62 L196.0,155.96 L200.0,155.96 L204.0,155.62 L208.0,154.94 L212.0,153.94 L216.0,152.63 L220.0,151.02 L224.0,149.14 L228.0,147.01 L232.0,144.66 L236.0,142.11 L240.0,139.41 L244.0,136.59 L248.0,133.68 L252.0,130.72 L256.0,127.75 L260.0,124.81 L264.0,121.94 L268.0,119.18 L272.0,116.55 L276.0,114.10 L280.0,111.86 L284.0,109.86 L288.0,108.11 L292.0,106.66 L296.0,105.50 L300.0,104.67 L304.0,104.17 L308.0,104.00 L312.0,104.17 L316.0,104.68 L320.0,105.52 L324.0,106.68 L328.0,108.14 L332.0,109.89 L336.0,111.90 L340.0,114.14 L344.0,116.59 L348.0,119.22 L352.0,121.99 L356.0,124.86 L360.0,127.80 L364.0,130.77 L368.0,133.72 L372.0,136.63 L376.0,139.45 L380.0,142.15 L384.0,144.69 L388.0,147.04 L392.0,149.17 L396.0,151.05 L400.0,152.65 L404.0,153.96 L408.0,154.95 L412.0,155.62 L416.0,155.96 L420.0,155.96 L424.0,155.62 L428.0,154.94 L432.0,153.94 L436.0,152.63 L440.0,151.02 L444.0,149.14 L448.0,147.01 L452.0,144.66 L456.0,142.11 L460.0,139.41 L464.0,136.59 L468.0,133.68 L472.0,130.72 L476.0,127.75 L480.0,124.81 L484.0,121.94 L488.0,119.18 L492.0,116.55 L496.0,114.10 L500.0,111.86 L504.0,109.86 L508.0,108.11 L512.0,106.66 L516.0,105.50 L520.0,104.67 L524.0,104.17 L528.0,104.00 L532.0,104.17 L536.0,104.68 L540.0,105.52 L544.0,106.68 L548.0,108.14 L552.0,109.89 L556.0,111.90 L560.0,114.14 L564.0,116.59 L568.0,119.22 L572.0,121.99 L576.0,124.86 L580.0,127.80 L584.0,130.77 L588.0,133.72 L592.0,136.63 L596.0,139.45 L600.0,142.15 L604.0,144.69 L608.0,147.04 L612.0,149.17 L616.0,151.05 L620.0,152.65 L624.0,153.96 L628.0,154.95 L632.0,155.62 L636.0,155.96 L640.0,155.96 L644.0,155.62 L648.0,154.94 L652.0,153.94 L656.0,152.63 L660.0,151.02 L664.0,149.14 L668.0,147.01 L672.0,144.66 L676.0,142.11 L680.0,139.41 L684.0,136.59 L688.0,133.68 L692.0,130.72 L696.0,127.75 L700.0,124.81 L704.0,121.94 L708.0,119.18 L712.0,116.55 L716.0,114.10 L720.0,111.86 L724.0,109.86 L728.0,108.11 L732.0,106.66 L736.0,105.50 L740.0,104.67 L744.0,104.17 L748.0,104.00 L752.0,104.17 L756.0,104.68 L760.0,105.52 L764.0,106.68 L768.0,108.14 L772.0,109.89 L776.0,111.90 L780.0,114.14 L784.0,116.59 L788.0,119.22 L792.0,121.99 L796.0,124.86 L800.0,127.80 L804.0,130.77 L808.0,133.72 L812.0,136.63 L816.0,139.45 L820.0,142.15 L824.0,144.69 L828.0,147.04 L832.0,149.17 L836.0,151.05 L840.0,152.65 L844.0,153.96 L848.0,154.95 L852.0,155.62 L856.0,155.96 L860.0,155.96 L864.0,155.62 L868.0,154.94 L872.0,153.94 L876.0,152.63 L880.0,151.02 L884.0,149.14 L888.0,147.01 L892.0,144.66 L896.0,142.11 L900.0,139.41 L904.0,136.59 L908.0,133.68 L912.0,130.72 L916.0,127.75 L920.0,124.81 L924.0,121.94 L928.0,119.18 L932.0,116.55 L936.0,114.10 L940.0,111.86 L944.0,109.86 L948.0,108.11 L952.0,106.66 L956.0,105.50 L960.0,104.67 L964.0,104.17 L968.0,104.00 L972.0,104.17 L976.0,104.68 L980.0,105.52 L984.0,106.68 L988.0,108.14 L992.0,109.89 L996.0,111.90 L1000.0,114.14 L1004.0,116.59 L1008.0,119.22 L1012.0,121.99 L1016.0,124.86 L1020.0,127.80 L1024.0,130.77 L1028.0,133.72 L1032.0,136.63 L1036.0,139.45 L1040.0,142.15 L1044.0,144.69 L1048.0,147.04 L1052.0,149.17 L1056.0,151.05 L1060.0,152.65 L1064.0,153.96 L1068.0,154.95 L1072.0,155.62 L1076.0,155.96 L1080.0,155.96 L1084.0,155.62 L1088.0,154.94 L1092.0,153.94 L1096.0,152.63 L1100.0,151.02 L1104.0,149.14 L1108.0,147.01 L1112.0,144.66 L1116.0,142.11 L1120.0,139.41 L1124.0,136.59 L1128.0,133.68 L1132.0,130.72 L1136.0,127.75 L1140.0,124.81 L1144.0,121.94 L1148.0,119.18 L1152.0,116.55 L1156.0,114.10 L1160.0,111.86 L1164.0,109.86 L1168.0,108.11 L1172.0,106.66 L1176.0,105.50 L1180.0,104.67 L1184.0,104.17 L1188.0,104.00 L1192.0,104.17 L1196.0,104.68 L1200.0,105.52 L1204.0,106.68 L1208.0,108.14 L1212.0,109.89 L1216.0,111.90 L1220.0,114.14 L1224.0,116.59 L1228.0,119.22 L1232.0,121.99 L1236.0,124.86 L1240.0,127.80 L1244.0,130.77 L1248.0,133.72 L1252.0,136.63 L1256.0,139.45 L1260.0,142.15 L1264.0,144.69 L1268.0,147.04 L1272.0,149.17 L1276.0,151.05 L1280.0,152.65 L1284.0,153.96 L1288.0,154.95 L1292.0,155.62 L1296.0,155.96 L1300.0,155.96 L1304.0,155.62 L1308.0,154.94 L1312.0,153.94 L1316.0,152.63 L1320.0,151.02 L1324.0,149.14 L1328.0,147.01 L1332.0,144.66 L1336.0,142.11 L1340.0,139.41 L1344.0,136.59 L1348.0,133.68 L1352.0,130.72 L1356.0,127.75 L1360.0,124.81 L1364.0,121.94 L1368.0,119.18 L1372.0,116.55 L1376.0,114.10 L1380.0,111.86 L1384.0,109.86 L1388.0,108.11 L1392.0,106.66 L1396.0,105.50 L1400.0,104.67 L1404.0,104.17 L1408.0,104.00 L1412.0,104.17 L1416.0,104.68 L1420.0,105.52 L1424.0,106.68 L1428.0,108.14 L1432.0,109.89 L1436.0,111.90 L1440.0,114.14 L1444.0,116.59 L1448.0,119.22 L1452.0,121.99 L1456.0,124.86 L1460.0,127.80 L1464.0,130.77 L1468.0,133.72 L1472.0,136.63 L1476.0,139.45 L1480.0,142.15 L1484.0,144.69 L1488.0,147.04 L1492.0,149.17 L1496.0,151.05 L1500.0,152.65 L1504.0,153.96 L1508.0,154.95 L1512.0,155.62 L1516.0,155.96 L1520.0,155.96 L1524.0,155.62 L1528.0,154.94 L1532.0,153.94 L1536.0,152.63 L1540.0,151.02 L1544.0,149.14 L1548.0,147.01 L1552.0,144.66 L1556.0,142.11 L1560.0,139.41 L1564.0,136.59 L1568.0,133.68 L1572.0,130.72 L1576.0,127.75 L1580.0,124.81 L1584.0,121.94 L1588.0,119.18 L1592.0,116.55 L1596.0,114.10 L1600.0,111.86 L1604.0,109.86 L1608.0,108.11 L1612.0,106.66 L1616.0,105.50 L1620.0,104.67 L1624.0,104.17 L1628.0,104.00 L1632.0,104.17 L1636.0,104.68 L1640.0,105.52" fill="none" stroke="#1495A8" stroke-opacity="0.74" stroke-width="1.8" stroke-linecap="round"/>
  <path class="w w3" d="M-840.0,123.69 L-836.0,121.34 L-832.0,119.02 L-828.0,116.74 L-824.0,114.51 L-820.0,112.33 L-816.0,110.21 L-812.0,108.17 L-808.0,106.20 L-804.0,104.32 L-800.0,102.54 L-796.0,100.85 L-792.0,99.26 L-788.0,97.78 L-784.0,96.42 L-780.0,95.18 L-776.0,94.07 L-772.0,93.08 L-768.0,92.23 L-764.0,91.51 L-760.0,90.93 L-756.0,90.48 L-752.0,90.18 L-748.0,90.03 L-744.0,90.01 L-740.0,90.14 L-736.0,90.41 L-732.0,90.82 L-728.0,91.38 L-724.0,92.07 L-720.0,92.90 L-716.0,93.86 L-712.0,94.94 L-708.0,96.16 L-704.0,97.50 L-700.0,98.95 L-696.0,100.51 L-692.0,102.18 L-688.0,103.95 L-684.0,105.81 L-680.0,107.76 L-676.0,109.79 L-672.0,111.89 L-668.0,114.05 L-664.0,116.28 L-660.0,118.55 L-656.0,120.86 L-652.0,123.20 L-648.0,125.57 L-644.0,127.96 L-640.0,130.35 L-636.0,132.74 L-632.0,135.13 L-628.0,137.49 L-624.0,139.83 L-620.0,142.13 L-616.0,144.38 L-612.0,146.59 L-608.0,148.74 L-604.0,150.82 L-600.0,152.82 L-596.0,154.75 L-592.0,156.58 L-588.0,158.32 L-584.0,159.96 L-580.0,161.49 L-576.0,162.91 L-572.0,164.21 L-568.0,165.39 L-564.0,166.44 L-560.0,167.36 L-556.0,168.15 L-552.0,168.80 L-548.0,169.31 L-544.0,169.68 L-540.0,169.91 L-536.0,170.00 L-532.0,169.94 L-528.0,169.74 L-524.0,169.40 L-520.0,168.92 L-516.0,168.29 L-512.0,167.54 L-508.0,166.64 L-504.0,165.62 L-500.0,164.46 L-496.0,163.19 L-492.0,161.79 L-488.0,160.28 L-484.0,158.67 L-480.0,156.95 L-476.0,155.13 L-472.0,153.23 L-468.0,151.24 L-464.0,149.17 L-460.0,147.04 L-456.0,144.84 L-452.0,142.59 L-448.0,140.30 L-444.0,137.97 L-440.0,135.61 L-436.0,133.23 L-432.0,130.84 L-428.0,128.45 L-424.0,126.06 L-420.0,123.69 L-416.0,121.34 L-412.0,119.02 L-408.0,116.74 L-404.0,114.51 L-400.0,112.33 L-396.0,110.21 L-392.0,108.17 L-388.0,106.20 L-384.0,104.32 L-380.0,102.54 L-376.0,100.85 L-372.0,99.26 L-368.0,97.78 L-364.0,96.42 L-360.0,95.18 L-356.0,94.07 L-352.0,93.08 L-348.0,92.23 L-344.0,91.51 L-340.0,90.93 L-336.0,90.48 L-332.0,90.18 L-328.0,90.03 L-324.0,90.01 L-320.0,90.14 L-316.0,90.41 L-312.0,90.82 L-308.0,91.38 L-304.0,92.07 L-300.0,92.90 L-296.0,93.86 L-292.0,94.94 L-288.0,96.16 L-284.0,97.50 L-280.0,98.95 L-276.0,100.51 L-272.0,102.18 L-268.0,103.95 L-264.0,105.81 L-260.0,107.76 L-256.0,109.79 L-252.0,111.89 L-248.0,114.05 L-244.0,116.28 L-240.0,118.55 L-236.0,120.86 L-232.0,123.20 L-228.0,125.57 L-224.0,127.96 L-220.0,130.35 L-216.0,132.74 L-212.0,135.13 L-208.0,137.49 L-204.0,139.83 L-200.0,142.13 L-196.0,144.38 L-192.0,146.59 L-188.0,148.74 L-184.0,150.82 L-180.0,152.82 L-176.0,154.75 L-172.0,156.58 L-168.0,158.32 L-164.0,159.96 L-160.0,161.49 L-156.0,162.91 L-152.0,164.21 L-148.0,165.39 L-144.0,166.44 L-140.0,167.36 L-136.0,168.15 L-132.0,168.80 L-128.0,169.31 L-124.0,169.68 L-120.0,169.91 L-116.0,170.00 L-112.0,169.94 L-108.0,169.74 L-104.0,169.40 L-100.0,168.92 L-96.0,168.29 L-92.0,167.54 L-88.0,166.64 L-84.0,165.62 L-80.0,164.46 L-76.0,163.19 L-72.0,161.79 L-68.0,160.28 L-64.0,158.67 L-60.0,156.95 L-56.0,155.13 L-52.0,153.23 L-48.0,151.24 L-44.0,149.17 L-40.0,147.04 L-36.0,144.84 L-32.0,142.59 L-28.0,140.30 L-24.0,137.97 L-20.0,135.61 L-16.0,133.23 L-12.0,130.84 L-8.0,128.45 L-4.0,126.06 L0.0,123.69 L4.0,121.34 L8.0,119.02 L12.0,116.74 L16.0,114.51 L20.0,112.33 L24.0,110.21 L28.0,108.17 L32.0,106.20 L36.0,104.32 L40.0,102.54 L44.0,100.85 L48.0,99.26 L52.0,97.78 L56.0,96.42 L60.0,95.18 L64.0,94.07 L68.0,93.08 L72.0,92.23 L76.0,91.51 L80.0,90.93 L84.0,90.48 L88.0,90.18 L92.0,90.03 L96.0,90.01 L100.0,90.14 L104.0,90.41 L108.0,90.82 L112.0,91.38 L116.0,92.07 L120.0,92.90 L124.0,93.86 L128.0,94.94 L132.0,96.16 L136.0,97.50 L140.0,98.95 L144.0,100.51 L148.0,102.18 L152.0,103.95 L156.0,105.81 L160.0,107.76 L164.0,109.79 L168.0,111.89 L172.0,114.05 L176.0,116.28 L180.0,118.55 L184.0,120.86 L188.0,123.20 L192.0,125.57 L196.0,127.96 L200.0,130.35 L204.0,132.74 L208.0,135.13 L212.0,137.49 L216.0,139.83 L220.0,142.13 L224.0,144.38 L228.0,146.59 L232.0,148.74 L236.0,150.82 L240.0,152.82 L244.0,154.75 L248.0,156.58 L252.0,158.32 L256.0,159.96 L260.0,161.49 L264.0,162.91 L268.0,164.21 L272.0,165.39 L276.0,166.44 L280.0,167.36 L284.0,168.15 L288.0,168.80 L292.0,169.31 L296.0,169.68 L300.0,169.91 L304.0,170.00 L308.0,169.94 L312.0,169.74 L316.0,169.40 L320.0,168.92 L324.0,168.29 L328.0,167.54 L332.0,166.64 L336.0,165.62 L340.0,164.46 L344.0,163.19 L348.0,161.79 L352.0,160.28 L356.0,158.67 L360.0,156.95 L364.0,155.13 L368.0,153.23 L372.0,151.24 L376.0,149.17 L380.0,147.04 L384.0,144.84 L388.0,142.59 L392.0,140.30 L396.0,137.97 L400.0,135.61 L404.0,133.23 L408.0,130.84 L412.0,128.45 L416.0,126.06 L420.0,123.69 L424.0,121.34 L428.0,119.02 L432.0,116.74 L436.0,114.51 L440.0,112.33 L444.0,110.21 L448.0,108.17 L452.0,106.20 L456.0,104.32 L460.0,102.54 L464.0,100.85 L468.0,99.26 L472.0,97.78 L476.0,96.42 L480.0,95.18 L484.0,94.07 L488.0,93.08 L492.0,92.23 L496.0,91.51 L500.0,90.93 L504.0,90.48 L508.0,90.18 L512.0,90.03 L516.0,90.01 L520.0,90.14 L524.0,90.41 L528.0,90.82 L532.0,91.38 L536.0,92.07 L540.0,92.90 L544.0,93.86 L548.0,94.94 L552.0,96.16 L556.0,97.50 L560.0,98.95 L564.0,100.51 L568.0,102.18 L572.0,103.95 L576.0,105.81 L580.0,107.76 L584.0,109.79 L588.0,111.89 L592.0,114.05 L596.0,116.28 L600.0,118.55 L604.0,120.86 L608.0,123.20 L612.0,125.57 L616.0,127.96 L620.0,130.35 L624.0,132.74 L628.0,135.13 L632.0,137.49 L636.0,139.83 L640.0,142.13 L644.0,144.38 L648.0,146.59 L652.0,148.74 L656.0,150.82 L660.0,152.82 L664.0,154.75 L668.0,156.58 L672.0,158.32 L676.0,159.96 L680.0,161.49 L684.0,162.91 L688.0,164.21 L692.0,165.39 L696.0,166.44 L700.0,167.36 L704.0,168.15 L708.0,168.80 L712.0,169.31 L716.0,169.68 L720.0,169.91 L724.0,170.00 L728.0,169.94 L732.0,169.74 L736.0,169.40 L740.0,168.92 L744.0,168.29 L748.0,167.54 L752.0,166.64 L756.0,165.62 L760.0,164.46 L764.0,163.19 L768.0,161.79 L772.0,160.28 L776.0,158.67 L780.0,156.95 L784.0,155.13 L788.0,153.23 L792.0,151.24 L796.0,149.17 L800.0,147.04 L804.0,144.84 L808.0,142.59 L812.0,140.30 L816.0,137.97 L820.0,135.61 L824.0,133.23 L828.0,130.84 L832.0,128.45 L836.0,126.06 L840.0,123.69 L844.0,121.34 L848.0,119.02 L852.0,116.74 L856.0,114.51 L860.0,112.33 L864.0,110.21 L868.0,108.17 L872.0,106.20 L876.0,104.32 L880.0,102.54 L884.0,100.85 L888.0,99.26 L892.0,97.78 L896.0,96.42 L900.0,95.18 L904.0,94.07 L908.0,93.08 L912.0,92.23 L916.0,91.51 L920.0,90.93 L924.0,90.48 L928.0,90.18 L932.0,90.03 L936.0,90.01 L940.0,90.14 L944.0,90.41 L948.0,90.82 L952.0,91.38 L956.0,92.07 L960.0,92.90 L964.0,93.86 L968.0,94.94 L972.0,96.16 L976.0,97.50 L980.0,98.95 L984.0,100.51 L988.0,102.18 L992.0,103.95 L996.0,105.81 L1000.0,107.76 L1004.0,109.79 L1008.0,111.89 L1012.0,114.05 L1016.0,116.28 L1020.0,118.55 L1024.0,120.86 L1028.0,123.20 L1032.0,125.57 L1036.0,127.96 L1040.0,130.35 L1044.0,132.74 L1048.0,135.13 L1052.0,137.49 L1056.0,139.83 L1060.0,142.13 L1064.0,144.38 L1068.0,146.59 L1072.0,148.74 L1076.0,150.82 L1080.0,152.82 L1084.0,154.75 L1088.0,156.58 L1092.0,158.32 L1096.0,159.96 L1100.0,161.49 L1104.0,162.91 L1108.0,164.21 L1112.0,165.39 L1116.0,166.44 L1120.0,167.36 L1124.0,168.15 L1128.0,168.80 L1132.0,169.31 L1136.0,169.68 L1140.0,169.91 L1144.0,170.00 L1148.0,169.94 L1152.0,169.74 L1156.0,169.40 L1160.0,168.92 L1164.0,168.29 L1168.0,167.54 L1172.0,166.64 L1176.0,165.62 L1180.0,164.46 L1184.0,163.19 L1188.0,161.79 L1192.0,160.28 L1196.0,158.67 L1200.0,156.95 L1204.0,155.13 L1208.0,153.23 L1212.0,151.24 L1216.0,149.17 L1220.0,147.04 L1224.0,144.84 L1228.0,142.59 L1232.0,140.30 L1236.0,137.97 L1240.0,135.61 L1244.0,133.23 L1248.0,130.84 L1252.0,128.45 L1256.0,126.06 L1260.0,123.69 L1264.0,121.34 L1268.0,119.02 L1272.0,116.74 L1276.0,114.51 L1280.0,112.33 L1284.0,110.21 L1288.0,108.17 L1292.0,106.20 L1296.0,104.32 L1300.0,102.54 L1304.0,100.85 L1308.0,99.26 L1312.0,97.78 L1316.0,96.42 L1320.0,95.18 L1324.0,94.07 L1328.0,93.08 L1332.0,92.23 L1336.0,91.51 L1340.0,90.93 L1344.0,90.48 L1348.0,90.18 L1352.0,90.03 L1356.0,90.01 L1360.0,90.14 L1364.0,90.41 L1368.0,90.82 L1372.0,91.38 L1376.0,92.07 L1380.0,92.90 L1384.0,93.86 L1388.0,94.94 L1392.0,96.16 L1396.0,97.50 L1400.0,98.95 L1404.0,100.51 L1408.0,102.18 L1412.0,103.95 L1416.0,105.81 L1420.0,107.76 L1424.0,109.79 L1428.0,111.89 L1432.0,114.05 L1436.0,116.28 L1440.0,118.55 L1444.0,120.86 L1448.0,123.20 L1452.0,125.57 L1456.0,127.96 L1460.0,130.35 L1464.0,132.74 L1468.0,135.13 L1472.0,137.49 L1476.0,139.83 L1480.0,142.13 L1484.0,144.38 L1488.0,146.59 L1492.0,148.74 L1496.0,150.82 L1500.0,152.82 L1504.0,154.75 L1508.0,156.58 L1512.0,158.32 L1516.0,159.96 L1520.0,161.49 L1524.0,162.91 L1528.0,164.21 L1532.0,165.39 L1536.0,166.44 L1540.0,167.36 L1544.0,168.15 L1548.0,168.80 L1552.0,169.31 L1556.0,169.68 L1560.0,169.91 L1564.0,170.00 L1568.0,169.94 L1572.0,169.74 L1576.0,169.40 L1580.0,168.92 L1584.0,168.29 L1588.0,167.54 L1592.0,166.64 L1596.0,165.62 L1600.0,164.46 L1604.0,163.19 L1608.0,161.79 L1612.0,160.28 L1616.0,158.67 L1620.0,156.95 L1624.0,155.13 L1628.0,153.23 L1632.0,151.24 L1636.0,149.17 L1640.0,147.04 L1644.0,144.84 L1648.0,142.59 L1652.0,140.30 L1656.0,137.97 L1660.0,135.61 L1664.0,133.23 L1668.0,130.84 L1672.0,128.45 L1676.0,126.06 L1680.0,123.69 L1684.0,121.34 L1688.0,119.02 L1692.0,116.74 L1696.0,114.51 L1700.0,112.33 L1704.0,110.21 L1708.0,108.17 L1712.0,106.20 L1716.0,104.32 L1720.0,102.54 L1724.0,100.85 L1728.0,99.26 L1732.0,97.78 L1736.0,96.42 L1740.0,95.18 L1744.0,94.07 L1748.0,93.08 L1752.0,92.23 L1756.0,91.51 L1760.0,90.93 L1764.0,90.48 L1768.0,90.18 L1772.0,90.03 L1776.0,90.01 L1780.0,90.14 L1784.0,90.41 L1788.0,90.82 L1792.0,91.38 L1796.0,92.07 L1800.0,92.90 L1804.0,93.86 L1808.0,94.94 L1812.0,96.16 L1816.0,97.50 L1820.0,98.95 L1824.0,100.51 L1828.0,102.18 L1832.0,103.95 L1836.0,105.81 L1840.0,107.76 L1844.0,109.79 L1848.0,111.89 L1852.0,114.05 L1856.0,116.28 L1860.0,118.55 L1864.0,120.86 L1868.0,123.20 L1872.0,125.57 L1876.0,127.96 L1880.0,130.35 L1884.0,132.74 L1888.0,135.13 L1892.0,137.49 L1896.0,139.83 L1900.0,142.13 L1904.0,144.38 L1908.0,146.59 L1912.0,148.74 L1916.0,150.82 L1920.0,152.82 L1924.0,154.75 L1928.0,156.58 L1932.0,158.32 L1936.0,159.96 L1940.0,161.49 L1944.0,162.91 L1948.0,164.21 L1952.0,165.39 L1956.0,166.44 L1960.0,167.36 L1964.0,168.15 L1968.0,168.80 L1972.0,169.31 L1976.0,169.68 L1980.0,169.91 L1984.0,170.00 L1988.0,169.94 L1992.0,169.74 L1996.0,169.40 L2000.0,168.92 L2004.0,168.29 L2008.0,167.54 L2012.0,166.64 L2016.0,165.62 L2020.0,164.46 L2024.0,163.19 L2028.0,161.79 L2032.0,160.28 L2036.0,158.67 L2040.0,156.95" fill="none" stroke="#1495A8" stroke-opacity="0.88" stroke-width="2.0" stroke-linecap="round"/>
  </g>
  <rect x="0" y="0" width="1200" height="300" fill="url(#fade)"/>

  <rect x="0" y="250" width="1200" height="34" fill="#000000"/>
  <text x="40"    y="273" fill="#ffffff" font-size="15" font-weight="800" letter-spacing="1">RESEARCHER</text>
  <text x="600.0" y="273" text-anchor="middle" fill="#ffffff" font-size="15" font-weight="800" letter-spacing="1">ENGINEER</text>
  <text x="1160" y="273" text-anchor="end" fill="#ffffff" font-size="15" font-weight="800" letter-spacing="1">CREATOR</text>

  <text x="40" y="436" font-size="152" font-weight="800" textLength="1120" lengthAdjust="spacingAndGlyphs" fill="#0a0a0a">Tong Shan<tspan fill="#1495A8">.</tspan> <tspan fill="#1495A8">单</tspan>彤</text>
</svg>
